<?xml version = "1.0" ?>
<svg width="725" height="380" dpi="72" version="1.1" xmlns="http://www.w3.org/2000/svg" xmlns:xlink="http://www.w3.org/1999/xlink">
<!-- <rect x="0" y="0" fill="#FFFFFF" stroke="#000000" stroke-width="3" width="840" height="600"/> -->
    <g transform="rotate(90 300 300) translate(0 -70)">
    <!-- <g> -->
        <text x="277.00259161294025" y="31.180555555555557" font-size="16.666666666666668" >NC_000001.11</text>
        <line stroke="#BDBDBD" stroke-width="16.666666666666668" x1="20" y1="22.84722222222222" x2="257.00259161294025" y2="22.84722222222222" stroke-linecap="round"/>
        <line fill="none" stroke="#ff0000" stroke-width="2" x1="43.11462777444649" y1="14.513888888888888" x2="43.11462777444649" y2="31.180555555555557"/>
        <line fill="none" stroke="#ff0000" stroke-width="2" x1="48.97063224804195" y1="14.513888888888888" x2="48.97063224804195" y2="31.180555555555557"/>
        <line fill="none" stroke="#ff0000" stroke-width="2" x1="52.88683935114087" y1="14.513888888888888" x2="52.88683935114087" y2="31.180555555555557"/>
        <line fill="none" stroke="#ff0000" stroke-width="2" x1="84.73615391217079" y1="14.513888888888888" x2="84.73615391217079" y2="31.180555555555557"/>
        <line fill="none" stroke="#ff0000" stroke-width="2" x1="82.58126998111922" y1="14.513888888888888" x2="82.58126998111922" y2="31.180555555555557"/>
        <line fill="none" stroke="#ff0000" stroke-width="2" x1="89.95778654791934" y1="14.513888888888888" x2="89.95778654791934" y2="31.180555555555557"/>
        <line fill="none" stroke="#ff0000" stroke-width="2" x1="97.05342492294321" y1="14.513888888888888" x2="97.05342492294321" y2="31.180555555555557"/>
        <line fill="none" stroke="#ff0000" stroke-width="2" x1="102.49645196685888" y1="14.513888888888888" x2="102.49645196685888" y2="31.180555555555557"/>
        <line fill="none" stroke="#ff0000" stroke-width="2" x1="104.45313468192163" y1="14.513888888888888" x2="104.45313468192163" y2="31.180555555555557"/>
        <line fill="none" stroke="#ff0000" stroke-width="2" x1="104.94053728794695" y1="14.513888888888888" x2="104.94053728794695" y2="31.180555555555557"/>
        <line fill="none" stroke="#ff0000" stroke-width="2" x1="107.03645817077184" y1="14.513888888888888" x2="107.03645817077184" y2="31.180555555555557"/>
        <line fill="none" stroke="#ff0000" stroke-width="2" x1="107.84857022721451" y1="14.513888888888888" x2="107.84857022721451" y2="31.180555555555557"/>
        <line fill="none" stroke="#ff0000" stroke-width="2" x1="107.80876681391702" y1="14.513888888888888" x2="107.80876681391702" y2="31.180555555555557"/>
        <line fill="none" stroke="#ff0000" stroke-width="2" x1="110.75152433053115" y1="14.513888888888888" x2="110.75152433053115" y2="31.180555555555557"/>
        <line fill="none" stroke="#ff0000" stroke-width="2" x1="170.64452312756856" y1="14.513888888888888" x2="170.64452312756856" y2="31.180555555555557"/>
        <line fill="none" stroke="#ff0000" stroke-width="2" x1="114.13384819680783" y1="14.513888888888888" x2="114.13384819680783" y2="31.180555555555557"/>
        <line fill="none" stroke="#ff0000" stroke-width="2" x1="121.06646307769044" y1="14.513888888888888" x2="121.06646307769044" y2="31.180555555555557"/>
        <line fill="none" stroke="#ff0000" stroke-width="2" x1="122.6608139249453" y1="14.513888888888888" x2="122.6608139249453" y2="31.180555555555557"/>
        <line fill="none" stroke="#ff0000" stroke-width="2" x1="132.8213170278439" y1="14.513888888888888" x2="132.8213170278439" y2="31.180555555555557"/>
        <line fill="none" stroke="#ff0000" stroke-width="2" x1="133.94403012818242" y1="14.513888888888888" x2="133.94403012818242" y2="31.180555555555557"/>
        <line fill="none" stroke="#ff0000" stroke-width="2" x1="172.81594112099967" y1="14.513888888888888" x2="172.81594112099967" y2="31.180555555555557"/>
        <line fill="none" stroke="#ff0000" stroke-width="2" x1="176.2411537815142" y1="14.513888888888888" x2="176.2411537815142" y2="31.180555555555557"/>
        <line fill="none" stroke="#ff0000" stroke-width="2" x1="178.54918817809477" y1="14.513888888888888" x2="178.54918817809477" y2="31.180555555555557"/>
        <line fill="none" stroke="#ff0000" stroke-width="2" x1="182.27882160078198" y1="14.513888888888888" x2="182.27882160078198" y2="31.180555555555557"/>
        <line fill="none" stroke="#ff0000" stroke-width="2" x1="182.6090830233203" y1="14.513888888888888" x2="182.6090830233203" y2="31.180555555555557"/>
        <line fill="none" stroke="#ff0000" stroke-width="2" x1="183.3132486341574" y1="14.513888888888888" x2="183.3132486341574" y2="31.180555555555557"/>
        <line fill="none" stroke="#ff0000" stroke-width="2" x1="185.27144500417077" y1="14.513888888888888" x2="185.27144500417077" y2="31.180555555555557"/>
        <line fill="none" stroke="#ff0000" stroke-width="2" x1="187.9398968282411" y1="14.513888888888888" x2="187.9398968282411" y2="31.180555555555557"/>
        <line fill="none" stroke="#ff0000" stroke-width="2" x1="196.3026624097096" y1="14.513888888888888" x2="196.3026624097096" y2="31.180555555555557"/>
        <line fill="none" stroke="#ff0000" stroke-width="2" x1="200.31591288284795" y1="14.513888888888888" x2="200.31591288284795" y2="31.180555555555557"/>
        <line fill="none" stroke="#ff0000" stroke-width="2" x1="201.11765307093359" y1="14.513888888888888" x2="201.11765307093359" y2="31.180555555555557"/>
        <line fill="none" stroke="#ff0000" stroke-width="2" x1="220.82475795611938" y1="14.513888888888888" x2="220.82475795611938" y2="31.180555555555557"/>
        <line fill="none" stroke="#ff0000" stroke-width="2" x1="234.20409686284145" y1="14.513888888888888" x2="234.20409686284145" y2="31.180555555555557"/>
        <line fill="none" stroke="#ff0000" stroke-width="2" x1="235.62629849497566" y1="14.513888888888888" x2="235.62629849497566" y2="31.180555555555557"/>
        <line fill="none" stroke="#ff0000" stroke-width="2" x1="236.62455012701395" y1="14.513888888888888" x2="236.62455012701395" y2="31.180555555555557"/>
        <line fill="none" stroke="#ff0000" stroke-width="2" x1="237.72926310923455" y1="14.513888888888888" x2="237.72926310923455" y2="31.180555555555557"/>
        <line fill="none" stroke="#ff0000" stroke-width="2" x1="240.77186568552327" y1="14.513888888888888" x2="240.77186568552327" y2="31.180555555555557"/>
        <line fill="none" stroke="#ff0000" stroke-width="2" x1="242.53979562823585" y1="14.513888888888888" x2="242.53979562823585" y2="31.180555555555557"/>
        <line fill="none" stroke="#ff0000" stroke-width="2" x1="252.81985652858498" y1="14.513888888888888" x2="252.81985652858498" y2="31.180555555555557"/>
        <text x="270.5644240215012" y="54.02777777777778" font-size="16.666666666666668" >NC_000002.12</text>
        <line stroke="#BDBDBD" stroke-width="16.666666666666668" x1="20" y1="45.69444444444444" x2="250.56442402150122" y2="45.69444444444444" stroke-linecap="round"/>
        <line fill="none" stroke="#ff0000" stroke-width="2" x1="209.47196788825286" y1="37.36111111111111" x2="209.47196788825286" y2="54.02777777777778"/>
        <line fill="none" stroke="#ff0000" stroke-width="2" x1="56.128718885616074" y1="37.36111111111111" x2="56.128718885616074" y2="54.02777777777778"/>
        <line fill="none" stroke="#ff0000" stroke-width="2" x1="58.7528729787649" y1="37.36111111111111" x2="58.7528729787649" y2="54.02777777777778"/>
        <line fill="none" stroke="#ff0000" stroke-width="2" x1="70.83993801519188" y1="37.36111111111111" x2="70.83993801519188" y2="54.02777777777778"/>
        <line fill="none" stroke="#ff0000" stroke-width="2" x1="73.15064653551863" y1="37.36111111111111" x2="73.15064653551863" y2="54.02777777777778"/>
        <line fill="none" stroke="#ff0000" stroke-width="2" x1="74.82196340507086" y1="37.36111111111111" x2="74.82196340507086" y2="54.02777777777778"/>
        <line fill="none" stroke="#ff0000" stroke-width="2" x1="80.85702278750537" y1="37.36111111111111" x2="80.85702278750537" y2="54.02777777777778"/>
        <line fill="none" stroke="#ff0000" stroke-width="2" x1="82.72678458101333" y1="37.36111111111111" x2="82.72678458101333" y2="54.02777777777778"/>
        <line fill="none" stroke="#ff0000" stroke-width="2" x1="83.41114796755537" y1="37.36111111111111" x2="83.41114796755537" y2="54.02777777777778"/>
        <line fill="none" stroke="#ff0000" stroke-width="2" x1="84.48955286514568" y1="37.36111111111111" x2="84.48955286514568" y2="54.02777777777778"/>
        <line fill="none" stroke="#ff0000" stroke-width="2" x1="87.47271830505333" y1="37.36111111111111" x2="87.47271830505333" y2="54.02777777777778"/>
        <line fill="none" stroke="#ff0000" stroke-width="2" x1="91.75000446469278" y1="37.36111111111111" x2="91.75000446469278" y2="54.02777777777778"/>
        <line fill="none" stroke="#ff0000" stroke-width="2" x1="98.01024524862389" y1="37.36111111111111" x2="98.01024524862389" y2="54.02777777777778"/>
        <line fill="none" stroke="#ff0000" stroke-width="2" x1="107.48854882517097" y1="37.36111111111111" x2="107.48854882517097" y2="54.02777777777778"/>
        <line fill="none" stroke="#ff0000" stroke-width="2" x1="110.5269931342744" y1="37.36111111111111" x2="110.5269931342744" y2="54.02777777777778"/>
        <line fill="none" stroke="#ff0000" stroke-width="2" x1="111.82084729841738" y1="37.36111111111111" x2="111.82084729841738" y2="54.02777777777778"/>
        <line fill="none" stroke="#ff0000" stroke-width="2" x1="116.45115587192588" y1="37.36111111111111" x2="116.45115587192588" y2="54.02777777777778"/>
        <line fill="none" stroke="#ff0000" stroke-width="2" x1="116.58007072252752" y1="37.36111111111111" x2="116.58007072252752" y2="54.02777777777778"/>
        <line fill="none" stroke="#ff0000" stroke-width="2" x1="119.9141670669164" y1="37.36111111111111" x2="119.9141670669164" y2="54.02777777777778"/>
        <line fill="none" stroke="#ff0000" stroke-width="2" x1="123.22408301146419" y1="37.36111111111111" x2="123.22408301146419" y2="54.02777777777778"/>
        <line fill="none" stroke="#ff0000" stroke-width="2" x1="131.38318013142072" y1="37.36111111111111" x2="131.38318013142072" y2="54.02777777777778"/>
        <line fill="none" stroke="#ff0000" stroke-width="2" x1="131.93878574476162" y1="37.36111111111111" x2="131.93878574476162" y2="54.02777777777778"/>
        <line fill="none" stroke="#ff0000" stroke-width="2" x1="161.29503539526158" y1="37.36111111111111" x2="161.29503539526158" y2="54.02777777777778"/>
        <line fill="none" stroke="#ff0000" stroke-width="2" x1="145.89282135688813" y1="37.36111111111111" x2="145.89282135688813" y2="54.02777777777778"/>
        <line fill="none" stroke="#ff0000" stroke-width="2" x1="150.7647968430762" y1="37.36111111111111" x2="150.7647968430762" y2="54.02777777777778"/>
        <line fill="none" stroke="#ff0000" stroke-width="2" x1="158.79326268483607" y1="37.36111111111111" x2="158.79326268483607" y2="54.02777777777778"/>
        <line fill="none" stroke="#ff0000" stroke-width="2" x1="158.94433020883545" y1="37.36111111111111" x2="158.94433020883545" y2="54.02777777777778"/>
        <line fill="none" stroke="#ff0000" stroke-width="2" x1="162.2289700196753" y1="37.36111111111111" x2="162.2289700196753" y2="54.02777777777778"/>
        <line fill="none" stroke="#ff0000" stroke-width="2" x1="166.63225605415602" y1="37.36111111111111" x2="166.63225605415602" y2="54.02777777777778"/>
        <line fill="none" stroke="#ff0000" stroke-width="2" x1="169.728035518426" y1="37.36111111111111" x2="169.728035518426" y2="54.02777777777778"/>
        <line fill="none" stroke="#ff0000" stroke-width="2" x1="173.77975472294935" y1="37.36111111111111" x2="173.77975472294935" y2="54.02777777777778"/>
        <line fill="none" stroke="#ff0000" stroke-width="2" x1="178.5827370548979" y1="37.36111111111111" x2="178.5827370548979" y2="54.02777777777778"/>
        <line fill="none" stroke="#ff0000" stroke-width="2" x1="183.99851545374852" y1="37.36111111111111" x2="183.99851545374852" y2="54.02777777777778"/>
        <line fill="none" stroke="#ff0000" stroke-width="2" x1="187.84036687535183" y1="37.36111111111111" x2="187.84036687535183" y2="54.02777777777778"/>
        <line fill="none" stroke="#ff0000" stroke-width="2" x1="197.84281679385603" y1="37.36111111111111" x2="197.84281679385603" y2="54.02777777777778"/>
        <line fill="none" stroke="#ff0000" stroke-width="2" x1="203.7696812627968" y1="37.36111111111111" x2="203.7696812627968" y2="54.02777777777778"/>
        <line fill="none" stroke="#ff0000" stroke-width="2" x1="206.5387178383006" y1="37.36111111111111" x2="206.5387178383006" y2="54.02777777777778"/>
        <line fill="none" stroke="#ff0000" stroke-width="2" x1="209.36392243628572" y1="37.36111111111111" x2="209.36392243628572" y2="54.02777777777778"/>
        <line fill="none" stroke="#ff0000" stroke-width="2" x1="218.86374847265986" y1="37.36111111111111" x2="218.86374847265986" y2="54.02777777777778"/>
        <line fill="none" stroke="#ff0000" stroke-width="2" x1="226.55795360606515" y1="37.36111111111111" x2="226.55795360606515" y2="54.02777777777778"/>
        <line fill="none" stroke="#ff0000" stroke-width="2" x1="238.3630837482032" y1="37.36111111111111" x2="238.3630837482032" y2="54.02777777777778"/>
        <line fill="none" stroke="#ff0000" stroke-width="2" x1="238.45831454023877" y1="37.36111111111111" x2="238.45831454023877" y2="54.02777777777778"/>
        <line fill="none" stroke="#ff0000" stroke-width="2" x1="239.0736524050769" y1="37.36111111111111" x2="239.0736524050769" y2="54.02777777777778"/>
        <line fill="none" stroke="#ff0000" stroke-width="2" x1="239.2772047245109" y1="37.36111111111111" x2="239.2772047245109" y2="54.02777777777778"/>
        <line fill="none" stroke="#ff0000" stroke-width="2" x1="239.45684986358233" y1="37.36111111111111" x2="239.45684986358233" y2="54.02777777777778"/>
        <line fill="none" stroke="#ff0000" stroke-width="2" x1="242.51566758752824" y1="37.36111111111111" x2="242.51566758752824" y2="54.02777777777778"/>
        <line fill="none" stroke="#ff0000" stroke-width="2" x1="246.42904348948042" y1="37.36111111111111" x2="246.42904348948042" y2="54.02777777777778"/>
        <text x="228.7742481627435" y="76.87499999999999" font-size="16.666666666666668" >NC_000003.12</text>
        <line stroke="#BDBDBD" stroke-width="16.666666666666668" x1="20" y1="68.54166666666666" x2="208.7742481627435" y2="68.54166666666666" stroke-linecap="round"/>
        <line fill="none" stroke="#ff0000" stroke-width="2" x1="135.52978360571421" y1="60.20833333333332" x2="135.52978360571421" y2="76.87499999999999"/>
        <line fill="none" stroke="#ff0000" stroke-width="2" x1="124.48872268307474" y1="60.20833333333332" x2="124.48872268307474" y2="76.87499999999999"/>
        <line fill="none" stroke="#ff0000" stroke-width="2" x1="146.23976439936405" y1="60.20833333333332" x2="146.23976439936405" y2="76.87499999999999"/>
        <line fill="none" stroke="#ff0000" stroke-width="2" x1="25.153418204622014" y1="60.20833333333332" x2="25.153418204622014" y2="76.87499999999999"/>
        <line fill="none" stroke="#ff0000" stroke-width="2" x1="36.84349629074444" y1="60.20833333333332" x2="36.84349629074444" y2="76.87499999999999"/>
        <line fill="none" stroke="#ff0000" stroke-width="2" x1="38.43009513028646" y1="60.20833333333332" x2="38.43009513028646" y2="76.87499999999999"/>
        <line fill="none" stroke="#ff0000" stroke-width="2" x1="43.11993127867936" y1="60.20833333333332" x2="43.11993127867936" y2="76.87499999999999"/>
        <line fill="none" stroke="#ff0000" stroke-width="2" x1="43.385679584838485" y1="60.20833333333332" x2="43.385679584838485" y2="76.87499999999999"/>
        <line fill="none" stroke="#ff0000" stroke-width="2" x1="43.51270569869663" y1="60.20833333333332" x2="43.51270569869663" y2="76.87499999999999"/>
        <line fill="none" stroke="#ff0000" stroke-width="2" x1="44.8778453951428" y1="60.20833333333332" x2="44.8778453951428" y2="76.87499999999999"/>
        <line fill="none" stroke="#ff0000" stroke-width="2" x1="47.00293031533509" y1="60.20833333333332" x2="47.00293031533509" y2="76.87499999999999"/>
        <line fill="none" stroke="#ff0000" stroke-width="2" x1="59.29532026586157" y1="60.20833333333332" x2="59.29532026586157" y2="76.87499999999999"/>
        <line fill="none" stroke="#ff0000" stroke-width="2" x1="68.79668185282405" y1="60.20833333333332" x2="68.79668185282405" y2="76.87499999999999"/>
        <line fill="none" stroke="#ff0000" stroke-width="2" x1="70.8274993890374" y1="60.20833333333332" x2="70.8274993890374" y2="76.87499999999999"/>
        <line fill="none" stroke="#ff0000" stroke-width="2" x1="70.90092688589344" y1="60.20833333333332" x2="70.90092688589344" y2="76.87499999999999"/>
        <line fill="none" stroke="#ff0000" stroke-width="2" x1="81.67266956145238" y1="60.20833333333332" x2="81.67266956145238" y2="76.87499999999999"/>
        <line fill="none" stroke="#ff0000" stroke-width="2" x1="91.20282867184766" y1="60.20833333333332" x2="91.20282867184766" y2="76.87499999999999"/>
        <line fill="none" stroke="#ff0000" stroke-width="2" x1="96.83486552385982" y1="60.20833333333332" x2="96.83486552385982" y2="76.87499999999999"/>
        <line fill="none" stroke="#ff0000" stroke-width="2" x1="100.3091881956579" y1="60.20833333333332" x2="100.3091881956579" y2="76.87499999999999"/>
        <line fill="none" stroke="#ff0000" stroke-width="2" x1="101.13149029146665" y1="60.20833333333332" x2="101.13149029146665" y2="76.87499999999999"/>
        <line fill="none" stroke="#ff0000" stroke-width="2" x1="101.42059933903131" y1="60.20833333333332" x2="101.42059933903131" y2="76.87499999999999"/>
        <line fill="none" stroke="#ff0000" stroke-width="2" x1="113.38015274963483" y1="60.20833333333332" x2="113.38015274963483" y2="76.87499999999999"/>
        <line fill="none" stroke="#ff0000" stroke-width="2" x1="107.13745037146249" y1="60.20833333333332" x2="107.13745037146249" y2="76.87499999999999"/>
        <line fill="none" stroke="#ff0000" stroke-width="2" x1="109.22561543863755" y1="60.20833333333332" x2="109.22561543863755" y2="76.87499999999999"/>
        <line fill="none" stroke="#ff0000" stroke-width="2" x1="111.05255888474186" y1="60.20833333333332" x2="111.05255888474186" y2="76.87499999999999"/>
        <line fill="none" stroke="#ff0000" stroke-width="2" x1="111.9383887932355" y1="60.20833333333332" x2="111.9383887932355" y2="76.87499999999999"/>
        <line fill="none" stroke="#ff0000" stroke-width="2" x1="121.72276577660583" y1="60.20833333333332" x2="121.72276577660583" y2="76.87499999999999"/>
        <line fill="none" stroke="#ff0000" stroke-width="2" x1="132.8260512454978" y1="60.20833333333332" x2="132.8260512454978" y2="76.87499999999999"/>
        <line fill="none" stroke="#ff0000" stroke-width="2" x1="133.41785605978194" y1="60.20833333333332" x2="133.41785605978194" y2="76.87499999999999"/>
        <line fill="none" stroke="#ff0000" stroke-width="2" x1="134.22012079118693" y1="60.20833333333332" x2="134.22012079118693" y2="76.87499999999999"/>
        <line fill="none" stroke="#ff0000" stroke-width="2" x1="146.36743215060383" y1="60.20833333333332" x2="146.36743215060383" y2="76.87499999999999"/>
        <line fill="none" stroke="#ff0000" stroke-width="2" x1="150.6324339055366" y1="60.20833333333332" x2="150.6324339055366" y2="76.87499999999999"/>
        <line fill="none" stroke="#ff0000" stroke-width="2" x1="154.16713903407174" y1="60.20833333333332" x2="154.16713903407174" y2="76.87499999999999"/>
        <line fill="none" stroke="#ff0000" stroke-width="2" x1="155.31066060605303" y1="60.20833333333332" x2="155.31066060605303" y2="76.87499999999999"/>
        <line fill="none" stroke="#ff0000" stroke-width="2" x1="159.40356740896712" y1="60.20833333333332" x2="159.40356740896712" y2="76.87499999999999"/>
        <line fill="none" stroke="#ff0000" stroke-width="2" x1="160.617240700015" y1="60.20833333333332" x2="160.617240700015" y2="76.87499999999999"/>
        <line fill="none" stroke="#ff0000" stroke-width="2" x1="164.15968546046776" y1="60.20833333333332" x2="164.15968546046776" y2="76.87499999999999"/>
        <line fill="none" stroke="#ff0000" stroke-width="2" x1="165.05618520838735" y1="60.20833333333332" x2="165.05618520838735" y2="76.87499999999999"/>
        <line fill="none" stroke="#ff0000" stroke-width="2" x1="165.05116349149122" y1="60.20833333333332" x2="165.05116349149122" y2="76.87499999999999"/>
        <line fill="none" stroke="#ff0000" stroke-width="2" x1="168.03957246062424" y1="60.20833333333332" x2="168.03957246062424" y2="76.87499999999999"/>
        <line fill="none" stroke="#ff0000" stroke-width="2" x1="168.56995810732775" y1="60.20833333333332" x2="168.56995810732775" y2="76.87499999999999"/>
        <line fill="none" stroke="#ff0000" stroke-width="2" x1="170.44600014090466" y1="60.20833333333332" x2="170.44600014090466" y2="76.87499999999999"/>
        <line fill="none" stroke="#ff0000" stroke-width="2" x1="175.58237116363873" y1="60.20833333333332" x2="175.58237116363873" y2="76.87499999999999"/>
        <line fill="none" stroke="#ff0000" stroke-width="2" x1="180.05534149292134" y1="60.20833333333332" x2="180.05534149292134" y2="76.87499999999999"/>
        <line fill="none" stroke="#ff0000" stroke-width="2" x1="192.31441389881638" y1="60.20833333333332" x2="192.31441389881638" y2="76.87499999999999"/>
        <line fill="none" stroke="#ff0000" stroke-width="2" x1="198.07082463657812" y1="60.20833333333332" x2="198.07082463657812" y2="76.87499999999999"/>
        <text x="221.08125966520421" y="99.72222222222221" font-size="16.666666666666668" >NC_000004.12</text>
        <line stroke="#BDBDBD" stroke-width="16.666666666666668" x1="20" y1="91.38888888888889" x2="201.08125966520421" y2="91.38888888888889" stroke-linecap="round"/>
        <line fill="none" stroke="#ff0000" stroke-width="2" x1="70.77887488971913" y1="83.05555555555556" x2="70.77887488971913" y2="99.72222222222221"/>
        <line fill="none" stroke="#ff0000" stroke-width="2" x1="96.96203919527605" y1="83.05555555555556" x2="96.96203919527605" y2="99.72222222222221"/>
        <line fill="none" stroke="#ff0000" stroke-width="2" x1="40.976781505440435" y1="83.05555555555556" x2="40.976781505440435" y2="99.72222222222221"/>
        <line fill="none" stroke="#ff0000" stroke-width="2" x1="23.015001697052774" y1="83.05555555555556" x2="23.015001697052774" y2="99.72222222222221"/>
        <line fill="none" stroke="#ff0000" stroke-width="2" x1="32.77245371000162" y1="83.05555555555556" x2="32.77245371000162" y2="99.72222222222221"/>
        <line fill="none" stroke="#ff0000" stroke-width="2" x1="39.742833805911644" y1="83.05555555555556" x2="39.742833805911644" y2="99.72222222222221"/>
        <line fill="none" stroke="#ff0000" stroke-width="2" x1="40.326918027963046" y1="83.05555555555556" x2="40.326918027963046" y2="99.72222222222221"/>
        <line fill="none" stroke="#ff0000" stroke-width="2" x1="45.67522263943033" y1="83.05555555555556" x2="45.67522263943033" y2="99.72222222222221"/>
        <line fill="none" stroke="#ff0000" stroke-width="2" x1="52.241653924246904" y1="83.05555555555556" x2="52.241653924246904" y2="99.72222222222221"/>
        <line fill="none" stroke="#ff0000" stroke-width="2" x1="52.2387237167386" y1="83.05555555555556" x2="52.2387237167386" y2="99.72222222222221"/>
        <line fill="none" stroke="#ff0000" stroke-width="2" x1="54.895912615197894" y1="83.05555555555556" x2="54.895912615197894" y2="99.72222222222221"/>
        <line fill="none" stroke="#ff0000" stroke-width="2" x1="62.359864175045466" y1="83.05555555555556" x2="62.359864175045466" y2="99.72222222222221"/>
        <line fill="none" stroke="#ff0000" stroke-width="2" x1="62.93924083500182" y1="83.05555555555556" x2="62.93924083500182" y2="99.72222222222221"/>
        <line fill="none" stroke="#ff0000" stroke-width="2" x1="64.17646907224133" y1="83.05555555555556" x2="64.17646907224133" y2="99.72222222222221"/>
        <line fill="none" stroke="#ff0000" stroke-width="2" x1="69.98426125569692" y1="83.05555555555556" x2="69.98426125569692" y2="99.72222222222221"/>
        <line fill="none" stroke="#ff0000" stroke-width="2" x1="74.15286032598763" y1="83.05555555555556" x2="74.15286032598763" y2="99.72222222222221"/>
        <line fill="none" stroke="#ff0000" stroke-width="2" x1="76.26718782420335" y1="83.05555555555556" x2="76.26718782420335" y2="99.72222222222221"/>
        <line fill="none" stroke="#ff0000" stroke-width="2" x1="76.27568523558058" y1="83.05555555555556" x2="76.27568523558058" y2="99.72222222222221"/>
        <line fill="none" stroke="#ff0000" stroke-width="2" x1="81.69805326938005" y1="83.05555555555556" x2="81.69805326938005" y2="99.72222222222221"/>
        <line fill="none" stroke="#ff0000" stroke-width="2" x1="81.68807837845347" y1="83.05555555555556" x2="81.68807837845347" y2="99.72222222222221"/>
        <line fill="none" stroke="#ff0000" stroke-width="2" x1="87.16203824646507" y1="83.05555555555556" x2="87.16203824646507" y2="99.72222222222221"/>
        <line fill="none" stroke="#ff0000" stroke-width="2" x1="88.53936334125638" y1="83.05555555555556" x2="88.53936334125638" y2="99.72222222222221"/>
        <line fill="none" stroke="#ff0000" stroke-width="2" x1="89.19029970497868" y1="83.05555555555556" x2="89.19029970497868" y2="99.72222222222221"/>
        <line fill="none" stroke="#ff0000" stroke-width="2" x1="90.92705882753391" y1="83.05555555555556" x2="90.92705882753391" y2="99.72222222222221"/>
        <line fill="none" stroke="#ff0000" stroke-width="2" x1="91.46939949239507" y1="83.05555555555556" x2="91.46939949239507" y2="99.72222222222221"/>
        <line fill="none" stroke="#ff0000" stroke-width="2" x1="91.71491337341158" y1="83.05555555555556" x2="91.71491337341158" y2="99.72222222222221"/>
        <line fill="none" stroke="#ff0000" stroke-width="2" x1="91.75888266976828" y1="83.05555555555556" x2="91.75888266976828" y2="99.72222222222221"/>
        <line fill="none" stroke="#ff0000" stroke-width="2" x1="93.73931453580882" y1="83.05555555555556" x2="93.73931453580882" y2="99.72222222222221"/>
        <line fill="none" stroke="#ff0000" stroke-width="2" x1="94.73156390717793" y1="83.05555555555556" x2="94.73156390717793" y2="99.72222222222221"/>
        <line fill="none" stroke="#ff0000" stroke-width="2" x1="96.79639298453783" y1="83.05555555555556" x2="96.79639298453783" y2="99.72222222222221"/>
        <line fill="none" stroke="#ff0000" stroke-width="2" x1="176.7607439268713" y1="83.05555555555556" x2="176.7607439268713" y2="99.72222222222221"/>
        <line fill="none" stroke="#ff0000" stroke-width="2" x1="97.56246613087359" y1="83.05555555555556" x2="97.56246613087359" y2="99.72222222222221"/>
        <line fill="none" stroke="#ff0000" stroke-width="2" x1="97.80004998312332" y1="83.05555555555556" x2="97.80004998312332" y2="99.72222222222221"/>
        <line fill="none" stroke="#ff0000" stroke-width="2" x1="99.17066073302959" y1="83.05555555555556" x2="99.17066073302959" y2="99.72222222222221"/>
        <line fill="none" stroke="#ff0000" stroke-width="2" x1="101.39525942237894" y1="83.05555555555556" x2="101.39525942237894" y2="99.72222222222221"/>
        <line fill="none" stroke="#ff0000" stroke-width="2" x1="102.56060142525621" y1="83.05555555555556" x2="102.56060142525621" y2="99.72222222222221"/>
        <line fill="none" stroke="#ff0000" stroke-width="2" x1="103.42906333317109" y1="83.05555555555556" x2="103.42906333317109" y2="99.72222222222221"/>
        <line fill="none" stroke="#ff0000" stroke-width="2" x1="104.60300460973988" y1="83.05555555555556" x2="104.60300460973988" y2="99.72222222222221"/>
        <line fill="none" stroke="#ff0000" stroke-width="2" x1="106.35079627771867" y1="83.05555555555556" x2="106.35079627771867" y2="99.72222222222221"/>
        <line fill="none" stroke="#ff0000" stroke-width="2" x1="109.79084275674988" y1="83.05555555555556" x2="109.79084275674988" y2="99.72222222222221"/>
        <line fill="none" stroke="#ff0000" stroke-width="2" x1="106.98911599423255" y1="83.05555555555556" x2="106.98911599423255" y2="99.72222222222221"/>
        <line fill="none" stroke="#ff0000" stroke-width="2" x1="107.13953902489759" y1="83.05555555555556" x2="107.13953902489759" y2="99.72222222222221"/>
        <line fill="none" stroke="#ff0000" stroke-width="2" x1="112.85916985132623" y1="83.05555555555556" x2="112.85916985132623" y2="99.72222222222221"/>
        <line fill="none" stroke="#ff0000" stroke-width="2" x1="113.8053336653604" y1="83.05555555555556" x2="113.8053336653604" y2="99.72222222222221"/>
        <line fill="none" stroke="#ff0000" stroke-width="2" x1="117.97763214642993" y1="83.05555555555556" x2="117.97763214642993" y2="99.72222222222221"/>
        <line fill="none" stroke="#ff0000" stroke-width="2" x1="119.54133481287832" y1="83.05555555555556" x2="119.54133481287832" y2="99.72222222222221"/>
        <line fill="none" stroke="#ff0000" stroke-width="2" x1="120.34763024557967" y1="83.05555555555556" x2="120.34763024557967" y2="99.72222222222221"/>
        <line fill="none" stroke="#ff0000" stroke-width="2" x1="123.77635382399237" y1="83.05555555555556" x2="123.77635382399237" y2="99.72222222222221"/>
        <line fill="none" stroke="#ff0000" stroke-width="2" x1="126.34549750750271" y1="83.05555555555556" x2="126.34549750750271" y2="99.72222222222221"/>
        <line fill="none" stroke="#ff0000" stroke-width="2" x1="129.64754435027544" y1="83.05555555555556" x2="129.64754435027544" y2="99.72222222222221"/>
        <line fill="none" stroke="#ff0000" stroke-width="2" x1="129.97242515785697" y1="83.05555555555556" x2="129.97242515785697" y2="99.72222222222221"/>
        <line fill="none" stroke="#ff0000" stroke-width="2" x1="135.13768985443267" y1="83.05555555555556" x2="135.13768985443267" y2="99.72222222222221"/>
        <line fill="none" stroke="#ff0000" stroke-width="2" x1="135.18630292993996" y1="83.05555555555556" x2="135.18630292993996" y2="99.72222222222221"/>
        <line fill="none" stroke="#ff0000" stroke-width="2" x1="135.70848532839813" y1="83.05555555555556" x2="135.70848532839813" y2="99.72222222222221"/>
        <line fill="none" stroke="#ff0000" stroke-width="2" x1="140.5876016484133" y1="83.05555555555556" x2="140.5876016484133" y2="99.72222222222221"/>
        <line fill="none" stroke="#ff0000" stroke-width="2" x1="141.75841851268768" y1="83.05555555555556" x2="141.75841851268768" y2="99.72222222222221"/>
        <line fill="none" stroke="#ff0000" stroke-width="2" x1="144.19124376411744" y1="83.05555555555556" x2="144.19124376411744" y2="99.72222222222221"/>
        <line fill="none" stroke="#ff0000" stroke-width="2" x1="148.44283110904388" y1="83.05555555555556" x2="148.44283110904388" y2="99.72222222222221"/>
        <line fill="none" stroke="#ff0000" stroke-width="2" x1="151.16758423338987" y1="83.05555555555556" x2="151.16758423338987" y2="99.72222222222221"/>
        <line fill="none" stroke="#ff0000" stroke-width="2" x1="151.8570264558828" y1="83.05555555555556" x2="151.8570264558828" y2="99.72222222222221"/>
        <line fill="none" stroke="#ff0000" stroke-width="2" x1="155.14912030336657" y1="83.05555555555556" x2="155.14912030336657" y2="99.72222222222221"/>
        <line fill="none" stroke="#ff0000" stroke-width="2" x1="157.87988520822424" y1="83.05555555555556" x2="157.87988520822424" y2="99.72222222222221"/>
        <line fill="none" stroke="#ff0000" stroke-width="2" x1="158.58443732466506" y1="83.05555555555556" x2="158.58443732466506" y2="99.72222222222221"/>
        <line fill="none" stroke="#ff0000" stroke-width="2" x1="170.1800719097231" y1="83.05555555555556" x2="170.1800719097231" y2="99.72222222222221"/>
        <line fill="none" stroke="#ff0000" stroke-width="2" x1="180.16359066951705" y1="83.05555555555556" x2="180.16359066951705" y2="99.72222222222221"/>
        <line fill="none" stroke="#ff0000" stroke-width="2" x1="181.40131489054858" y1="83.05555555555556" x2="181.40131489054858" y2="99.72222222222221"/>
        <line fill="none" stroke="#ff0000" stroke-width="2" x1="182.13852768249131" y1="83.05555555555556" x2="182.13852768249131" y2="99.72222222222221"/>
        <line fill="none" stroke="#ff0000" stroke-width="2" x1="190.29469554692378" y1="83.05555555555556" x2="190.29469554692378" y2="99.72222222222221"/>
        <line fill="none" stroke="#ff0000" stroke-width="2" x1="191.0520418536791" y1="83.05555555555556" x2="191.0520418536791" y2="99.72222222222221"/>
        <line fill="none" stroke="#ff0000" stroke-width="2" x1="195.73773496663466" y1="83.05555555555556" x2="195.73773496663466" y2="99.72222222222221"/>
        <line fill="none" stroke="#ff0000" stroke-width="2" x1="198.40339176495957" y1="83.05555555555556" x2="198.40339176495957" y2="99.72222222222221"/>
        <text x="212.82156256206628" y="122.56944444444444" font-size="16.666666666666668" >NC_000005.10</text>
        <line stroke="#BDBDBD" stroke-width="16.666666666666668" x1="20" y1="114.23611111111111" x2="192.82156256206628" y2="114.23611111111111" stroke-linecap="round"/>
        <line fill="none" stroke="#ff0000" stroke-width="2" x1="121.48123594965764" y1="105.90277777777779" x2="121.48123594965764" y2="122.56944444444444"/>
        <line fill="none" stroke="#ff0000" stroke-width="2" x1="81.36944925141351" y1="105.90277777777779" x2="81.36944925141351" y2="122.56944444444444"/>
        <line fill="none" stroke="#ff0000" stroke-width="2" x1="128.78588912971742" y1="105.90277777777779" x2="128.78588912971742" y2="122.56944444444444"/>
        <line fill="none" stroke="#ff0000" stroke-width="2" x1="35.60772554138511" y1="105.90277777777779" x2="35.60772554138511" y2="122.56944444444444"/>
        <line fill="none" stroke="#ff0000" stroke-width="2" x1="42.07284380682023" y1="105.90277777777779" x2="42.07284380682023" y2="122.56944444444444"/>
        <line fill="none" stroke="#ff0000" stroke-width="2" x1="46.544619395874484" y1="105.90277777777779" x2="46.544619395874484" y2="122.56944444444444"/>
        <line fill="none" stroke="#ff0000" stroke-width="2" x1="48.117916159551164" y1="105.90277777777779" x2="48.117916159551164" y2="122.56944444444444"/>
        <line fill="none" stroke="#ff0000" stroke-width="2" x1="51.74670779505854" y1="105.90277777777779" x2="51.74670779505854" y2="122.56944444444444"/>
        <line fill="none" stroke="#ff0000" stroke-width="2" x1="58.399450731512644" y1="105.90277777777779" x2="58.399450731512644" y2="122.56944444444444"/>
        <line fill="none" stroke="#ff0000" stroke-width="2" x1="60.32034835877904" y1="105.90277777777779" x2="60.32034835877904" y2="122.56944444444444"/>
        <line fill="none" stroke="#ff0000" stroke-width="2" x1="64.84359583203047" y1="105.90277777777779" x2="64.84359583203047" y2="122.56944444444444"/>
        <line fill="none" stroke="#ff0000" stroke-width="2" x1="79.81992353435228" y1="105.90277777777779" x2="79.81992353435228" y2="122.56944444444444"/>
        <line fill="none" stroke="#ff0000" stroke-width="2" x1="98.96130416564951" y1="105.90277777777779" x2="98.96130416564951" y2="122.56944444444444"/>
        <line fill="none" stroke="#ff0000" stroke-width="2" x1="102.85889331285502" y1="105.90277777777779" x2="102.85889331285502" y2="122.56944444444444"/>
        <line fill="none" stroke="#ff0000" stroke-width="2" x1="103.69743530791139" y1="105.90277777777779" x2="103.69743530791139" y2="122.56944444444444"/>
        <line fill="none" stroke="#ff0000" stroke-width="2" x1="104.87901245011504" y1="105.90277777777779" x2="104.87901245011504" y2="122.56944444444444"/>
        <line fill="none" stroke="#ff0000" stroke-width="2" x1="123.19467812208262" y1="105.90277777777779" x2="123.19467812208262" y2="122.56944444444444"/>
        <line fill="none" stroke="#ff0000" stroke-width="2" x1="126.99357791848787" y1="105.90277777777779" x2="126.99357791848787" y2="122.56944444444444"/>
        <line fill="none" stroke="#ff0000" stroke-width="2" x1="127.26333788625844" y1="105.90277777777779" x2="127.26333788625844" y2="122.56944444444444"/>
        <line fill="none" stroke="#ff0000" stroke-width="2" x1="129.30036521570656" y1="105.90277777777779" x2="129.30036521570656" y2="122.56944444444444"/>
        <line fill="none" stroke="#ff0000" stroke-width="2" x1="143.35674579813687" y1="105.90277777777779" x2="143.35674579813687" y2="122.56944444444444"/>
        <line fill="none" stroke="#ff0000" stroke-width="2" x1="143.36231205002156" y1="105.90277777777779" x2="143.36231205002156" y2="122.56944444444444"/>
        <line fill="none" stroke="#ff0000" stroke-width="2" x1="145.80577286944444" y1="105.90277777777779" x2="145.80577286944444" y2="122.56944444444444"/>
        <line fill="none" stroke="#ff0000" stroke-width="2" x1="146.7859015773971" y1="105.90277777777779" x2="146.7859015773971" y2="122.56944444444444"/>
        <line fill="none" stroke="#ff0000" stroke-width="2" x1="153.7730956190549" y1="105.90277777777779" x2="153.7730956190549" y2="122.56944444444444"/>
        <line fill="none" stroke="#ff0000" stroke-width="2" x1="160.5629595103087" y1="105.90277777777779" x2="160.5629595103087" y2="122.56944444444444"/>
        <line fill="none" stroke="#ff0000" stroke-width="2" x1="161.47460247162485" y1="105.90277777777779" x2="161.47460247162485" y2="122.56944444444444"/>
        <line fill="none" stroke="#ff0000" stroke-width="2" x1="166.72232233165863" y1="105.90277777777779" x2="166.72232233165863" y2="122.56944444444444"/>
        <line fill="none" stroke="#ff0000" stroke-width="2" x1="169.05776340268903" y1="105.90277777777779" x2="169.05776340268903" y2="122.56944444444444"/>
        <line fill="none" stroke="#ff0000" stroke-width="2" x1="174.72704568633043" y1="105.90277777777779" x2="174.72704568633043" y2="122.56944444444444"/>
        <line fill="none" stroke="#ff0000" stroke-width="2" x1="175.33052277945126" y1="105.90277777777779" x2="175.33052277945126" y2="122.56944444444444"/>
        <line fill="none" stroke="#ff0000" stroke-width="2" x1="182.6991616766181" y1="105.90277777777779" x2="182.6991616766181" y2="122.56944444444444"/>
        <line fill="none" stroke="#ff0000" stroke-width="2" x1="192.19525212681205" y1="105.90277777777779" x2="192.19525212681205" y2="122.56944444444444"/>
        <text x="202.60460108149147" y="145.41666666666666" font-size="16.666666666666668" >NC_000006.12</text>
        <line stroke="#BDBDBD" stroke-width="16.666666666666668" x1="20" y1="137.08333333333331" x2="182.60460108149147" y2="137.08333333333331" stroke-linecap="round"/>
        <line fill="none" stroke="#ff0000" stroke-width="2" x1="102.12426706210789" y1="128.74999999999997" x2="102.12426706210789" y2="145.41666666666666"/>
        <line fill="none" stroke="#ff0000" stroke-width="2" x1="95.01582069104218" y1="128.74999999999997" x2="95.01582069104218" y2="145.41666666666666"/>
        <line fill="none" stroke="#ff0000" stroke-width="2" x1="78.37403272624779" y1="128.74999999999997" x2="78.37403272624779" y2="145.41666666666666"/>
        <line fill="none" stroke="#ff0000" stroke-width="2" x1="95.45102028896963" y1="128.74999999999997" x2="95.45102028896963" y2="145.41666666666666"/>
        <line fill="none" stroke="#ff0000" stroke-width="2" x1="21.961311262465387" y1="128.74999999999997" x2="21.961311262465387" y2="145.41666666666666"/>
        <line fill="none" stroke="#ff0000" stroke-width="2" x1="26.696201017270873" y1="128.74999999999997" x2="26.696201017270873" y2="145.41666666666666"/>
        <line fill="none" stroke="#ff0000" stroke-width="2" x1="32.55729289467541" y1="128.74999999999997" x2="32.55729289467541" y2="145.41666666666666"/>
        <line fill="none" stroke="#ff0000" stroke-width="2" x1="36.255434678514455" y1="128.74999999999997" x2="36.255434678514455" y2="145.41666666666666"/>
        <line fill="none" stroke="#ff0000" stroke-width="2" x1="36.254146643830005" y1="128.74999999999997" x2="36.254146643830005" y2="145.41666666666666"/>
        <line fill="none" stroke="#ff0000" stroke-width="2" x1="42.301843617126366" y1="128.74999999999997" x2="42.301843617126366" y2="145.41666666666666"/>
        <line fill="none" stroke="#ff0000" stroke-width="2" x1="48.79553949763353" y1="128.74999999999997" x2="48.79553949763353" y2="145.41666666666666"/>
        <line fill="none" stroke="#ff0000" stroke-width="2" x1="73.50609365326153" y1="128.74999999999997" x2="73.50609365326153" y2="145.41666666666666"/>
        <line fill="none" stroke="#ff0000" stroke-width="2" x1="78.41975652956936" y1="128.74999999999997" x2="78.41975652956936" y2="145.41666666666666"/>
        <line fill="none" stroke="#ff0000" stroke-width="2" x1="82.2362537547566" y1="128.74999999999997" x2="82.2362537547566" y2="145.41666666666666"/>
        <line fill="none" stroke="#ff0000" stroke-width="2" x1="83.34440625605694" y1="128.74999999999997" x2="83.34440625605694" y2="145.41666666666666"/>
        <line fill="none" stroke="#ff0000" stroke-width="2" x1="84.06323147229375" y1="128.74999999999997" x2="84.06323147229375" y2="145.41666666666666"/>
        <line fill="none" stroke="#ff0000" stroke-width="2" x1="88.621990813863" y1="128.74999999999997" x2="88.621990813863" y2="145.41666666666666"/>
        <line fill="none" stroke="#ff0000" stroke-width="2" x1="90.65660105531126" y1="128.74999999999997" x2="90.65660105531126" y2="145.41666666666666"/>
        <line fill="none" stroke="#ff0000" stroke-width="2" x1="92.04379917871483" y1="128.74999999999997" x2="92.04379917871483" y2="145.41666666666666"/>
        <line fill="none" stroke="#ff0000" stroke-width="2" x1="96.94231503368913" y1="128.74999999999997" x2="96.94231503368913" y2="145.41666666666666"/>
        <line fill="none" stroke="#ff0000" stroke-width="2" x1="98.66512377910769" y1="128.74999999999997" x2="98.66512377910769" y2="145.41666666666666"/>
        <line fill="none" stroke="#ff0000" stroke-width="2" x1="101.77333425365816" y1="128.74999999999997" x2="101.77333425365816" y2="145.41666666666666"/>
        <line fill="none" stroke="#ff0000" stroke-width="2" x1="110.32051155931636" y1="128.74999999999997" x2="110.32051155931636" y2="145.41666666666666"/>
        <line fill="none" stroke="#ff0000" stroke-width="2" x1="113.09892422765617" y1="128.74999999999997" x2="113.09892422765617" y2="145.41666666666666"/>
        <line fill="none" stroke="#ff0000" stroke-width="2" x1="114.9148389362739" y1="128.74999999999997" x2="114.9148389362739" y2="145.41666666666666"/>
        <line fill="none" stroke="#ff0000" stroke-width="2" x1="116.06798030905811" y1="128.74999999999997" x2="116.06798030905811" y2="145.41666666666666"/>
        <line fill="none" stroke="#ff0000" stroke-width="2" x1="119.76765859546975" y1="128.74999999999997" x2="119.76765859546975" y2="145.41666666666666"/>
        <line fill="none" stroke="#ff0000" stroke-width="2" x1="124.41330458716091" y1="128.74999999999997" x2="124.41330458716091" y2="145.41666666666666"/>
        <line fill="none" stroke="#ff0000" stroke-width="2" x1="132.65153634952657" y1="128.74999999999997" x2="132.65153634952657" y2="145.41666666666666"/>
        <line fill="none" stroke="#ff0000" stroke-width="2" x1="141.14471996472065" y1="128.74999999999997" x2="141.14471996472065" y2="145.41666666666666"/>
        <line fill="none" stroke="#ff0000" stroke-width="2" x1="143.60127532744332" y1="128.74999999999997" x2="143.60127532744332" y2="145.41666666666666"/>
        <line fill="none" stroke="#ff0000" stroke-width="2" x1="151.26233808131838" y1="128.74999999999997" x2="151.26233808131838" y2="145.41666666666666"/>
        <line fill="none" stroke="#ff0000" stroke-width="2" x1="152.4059767473619" y1="128.74999999999997" x2="152.4059767473619" y2="145.41666666666666"/>
        <line fill="none" stroke="#ff0000" stroke-width="2" x1="153.38695272129328" y1="128.74999999999997" x2="153.38695272129328" y2="145.41666666666666"/>
        <line fill="none" stroke="#ff0000" stroke-width="2" x1="155.3045374433846" y1="128.74999999999997" x2="155.3045374433846" y2="145.41666666666666"/>
        <line fill="none" stroke="#ff0000" stroke-width="2" x1="156.16151556534345" y1="128.74999999999997" x2="156.16151556534345" y2="145.41666666666666"/>
        <line fill="none" stroke="#ff0000" stroke-width="2" x1="156.89185979095336" y1="128.74999999999997" x2="156.89185979095336" y2="145.41666666666666"/>
        <line fill="none" stroke="#ff0000" stroke-width="2" x1="159.47464731267326" y1="128.74999999999997" x2="159.47464731267326" y2="145.41666666666666"/>
        <line fill="none" stroke="#ff0000" stroke-width="2" x1="165.28134185829353" y1="128.74999999999997" x2="165.28134185829353" y2="145.41666666666666"/>
        <text x="191.6948559137213" y="168.26388888888889" font-size="16.666666666666668" >NC_000007.14</text>
        <line stroke="#BDBDBD" stroke-width="16.666666666666668" x1="20" y1="159.93055555555554" x2="171.6948559137213" y2="159.93055555555554" stroke-linecap="round"/>
        <line fill="none" stroke="#ff0000" stroke-width="2" x1="58.9636832260882" y1="151.5972222222222" x2="58.9636832260882" y2="168.26388888888889"/>
        <line fill="none" stroke="#ff0000" stroke-width="2" x1="135.87593269332922" y1="151.5972222222222" x2="135.87593269332922" y2="168.26388888888889"/>
        <line fill="none" stroke="#ff0000" stroke-width="2" x1="105.58558467712528" y1="151.5972222222222" x2="105.58558467712528" y2="168.26388888888889"/>
        <line fill="none" stroke="#ff0000" stroke-width="2" x1="123.07377041097166" y1="151.5972222222222" x2="123.07377041097166" y2="168.26388888888889"/>
        <line fill="none" stroke="#ff0000" stroke-width="2" x1="32.22515606317304" y1="151.5972222222222" x2="32.22515606317304" y2="168.26388888888889"/>
        <line fill="none" stroke="#ff0000" stroke-width="2" x1="35.38330191934812" y1="151.5972222222222" x2="35.38330191934812" y2="168.26388888888889"/>
        <line fill="none" stroke="#ff0000" stroke-width="2" x1="36.51566718795392" y1="151.5972222222222" x2="36.51566718795392" y2="168.26388888888889"/>
        <line fill="none" stroke="#ff0000" stroke-width="2" x1="37.83371317574895" y1="151.5972222222222" x2="37.83371317574895" y2="168.26388888888889"/>
        <line fill="none" stroke="#ff0000" stroke-width="2" x1="38.54348406982478" y1="151.5972222222222" x2="38.54348406982478" y2="168.26388888888889"/>
        <line fill="none" stroke="#ff0000" stroke-width="2" x1="40.87268298015602" y1="151.5972222222222" x2="40.87268298015602" y2="168.26388888888889"/>
        <line fill="none" stroke="#ff0000" stroke-width="2" x1="52.77805896733604" y1="151.5972222222222" x2="52.77805896733604" y2="168.26388888888889"/>
        <line fill="none" stroke="#ff0000" stroke-width="2" x1="68.44355281671946" y1="151.5972222222222" x2="68.44355281671946" y2="168.26388888888889"/>
        <line fill="none" stroke="#ff0000" stroke-width="2" x1="79.34143245285105" y1="151.5972222222222" x2="79.34143245285105" y2="168.26388888888889"/>
        <line fill="none" stroke="#ff0000" stroke-width="2" x1="94.51039511927702" y1="151.5972222222222" x2="94.51039511927702" y2="168.26388888888889"/>
        <line fill="none" stroke="#ff0000" stroke-width="2" x1="98.52269932007513" y1="151.5972222222222" x2="98.52269932007513" y2="168.26388888888889"/>
        <line fill="none" stroke="#ff0000" stroke-width="2" x1="105.58169867743428" y1="151.5972222222222" x2="105.58169867743428" y2="168.26388888888889"/>
        <line fill="none" stroke="#ff0000" stroke-width="2" x1="110.45794857288561" y1="151.5972222222222" x2="110.45794857288561" y2="168.26388888888889"/>
        <line fill="none" stroke="#ff0000" stroke-width="2" x1="127.49437684681887" y1="151.5972222222222" x2="127.49437684681887" y2="168.26388888888889"/>
        <line fill="none" stroke="#ff0000" stroke-width="2" x1="132.45032686332124" y1="151.5972222222222" x2="132.45032686332124" y2="168.26388888888889"/>
        <line fill="none" stroke="#ff0000" stroke-width="2" x1="144.5159703502512" y1="151.5972222222222" x2="144.5159703502512" y2="168.26388888888889"/>
        <line fill="none" stroke="#ff0000" stroke-width="2" x1="163.37292569647266" y1="151.5972222222222" x2="163.37292569647266" y2="168.26388888888889"/>
        <text x="188.5484737268705" y="191.11111111111111" font-size="16.666666666666668" >NC_000023.11</text>
        <line stroke="#BDBDBD" stroke-width="16.666666666666668" x1="20" y1="182.77777777777777" x2="168.5484737268705" y2="182.77777777777777" stroke-linecap="round"/>
        <line fill="none" stroke="#ff0000" stroke-width="2" x1="87.35069486840639" y1="174.44444444444443" x2="87.35069486840639" y2="191.11111111111111"/>
        <line fill="none" stroke="#ff0000" stroke-width="2" x1="125.24706666931957" y1="174.44444444444443" x2="125.24706666931957" y2="191.11111111111111"/>
        <line fill="none" stroke="#ff0000" stroke-width="2" x1="51.80339750490647" y1="174.44444444444443" x2="51.80339750490647" y2="191.11111111111111"/>
        <line fill="none" stroke="#ff0000" stroke-width="2" x1="82.68878422587724" y1="174.44444444444443" x2="82.68878422587724" y2="191.11111111111111"/>
        <line fill="none" stroke="#ff0000" stroke-width="2" x1="49.29361099110056" y1="174.44444444444443" x2="49.29361099110056" y2="191.11111111111111"/>
        <line fill="none" stroke="#ff0000" stroke-width="2" x1="93.20399475475979" y1="174.44444444444443" x2="93.20399475475979" y2="191.11111111111111"/>
        <line fill="none" stroke="#ff0000" stroke-width="2" x1="33.06254330133936" y1="174.44444444444443" x2="33.06254330133936" y2="191.11111111111111"/>
        <line fill="none" stroke="#ff0000" stroke-width="2" x1="36.72504374700318" y1="174.44444444444443" x2="36.72504374700318" y2="191.11111111111111"/>
        <line fill="none" stroke="#ff0000" stroke-width="2" x1="44.197164283663206" y1="174.44444444444443" x2="44.197164283663206" y2="191.11111111111111"/>
        <line fill="none" stroke="#ff0000" stroke-width="2" x1="72.49754916755856" y1="174.44444444444443" x2="72.49754916755856" y2="191.11111111111111"/>
        <line fill="none" stroke="#ff0000" stroke-width="2" x1="74.74073915724242" y1="174.44444444444443" x2="74.74073915724242" y2="191.11111111111111"/>
        <line fill="none" stroke="#ff0000" stroke-width="2" x1="80.29108624112999" y1="174.44444444444443" x2="80.29108624112999" y2="191.11111111111111"/>
        <line fill="none" stroke="#ff0000" stroke-width="2" x1="91.41636159411368" y1="174.44444444444443" x2="91.41636159411368" y2="191.11111111111111"/>
        <line fill="none" stroke="#ff0000" stroke-width="2" x1="94.53571504426023" y1="174.44444444444443" x2="94.53571504426023" y2="191.11111111111111"/>
        <line fill="none" stroke="#ff0000" stroke-width="2" x1="96.216344223704" y1="174.44444444444443" x2="96.216344223704" y2="191.11111111111111"/>
        <line fill="none" stroke="#ff0000" stroke-width="2" x1="97.17129866026308" y1="174.44444444444443" x2="97.17129866026308" y2="191.11111111111111"/>
        <line fill="none" stroke="#ff0000" stroke-width="2" x1="97.55778617632167" y1="174.44444444444443" x2="97.55778617632167" y2="191.11111111111111"/>
        <line fill="none" stroke="#ff0000" stroke-width="2" x1="106.66267012455106" y1="174.44444444444443" x2="106.66267012455106" y2="191.11111111111111"/>
        <line fill="none" stroke="#ff0000" stroke-width="2" x1="116.67054444928729" y1="174.44444444444443" x2="116.67054444928729" y2="191.11111111111111"/>
        <line fill="none" stroke="#ff0000" stroke-width="2" x1="121.37369409735648" y1="174.44444444444443" x2="121.37369409735648" y2="191.11111111111111"/>
        <line fill="none" stroke="#ff0000" stroke-width="2" x1="122.76275430194465" y1="174.44444444444443" x2="122.76275430194465" y2="191.11111111111111"/>
        <line fill="none" stroke="#ff0000" stroke-width="2" x1="123.99754355554666" y1="174.44444444444443" x2="123.99754355554666" y2="191.11111111111111"/>
        <line fill="none" stroke="#ff0000" stroke-width="2" x1="127.0617695019925" y1="174.44444444444443" x2="127.0617695019925" y2="191.11111111111111"/>
        <line fill="none" stroke="#ff0000" stroke-width="2" x1="127.16051216391052" y1="174.44444444444443" x2="127.16051216391052" y2="191.11111111111111"/>
        <line fill="none" stroke="#ff0000" stroke-width="2" x1="128.26886743785522" y1="174.44444444444443" x2="128.26886743785522" y2="191.11111111111111"/>
        <line fill="none" stroke="#ff0000" stroke-width="2" x1="140.95041141231252" y1="174.44444444444443" x2="140.95041141231252" y2="191.11111111111111"/>
        <line fill="none" stroke="#ff0000" stroke-width="2" x1="152.9727967351173" y1="174.44444444444443" x2="152.9727967351173" y2="191.11111111111111"/>
        <line fill="none" stroke="#ff0000" stroke-width="2" x1="168.2493202935293" y1="174.44444444444443" x2="168.2493202935293" y2="191.11111111111111"/>
        <text x="178.16969491619375" y="213.95833333333334" font-size="16.666666666666668" >NC_000008.11</text>
        <line stroke="#BDBDBD" stroke-width="16.666666666666668" x1="20" y1="205.625" x2="158.16969491619375" y2="205.625" stroke-linecap="round"/>
        <line fill="none" stroke="#ff0000" stroke-width="2" x1="54.25913511316207" y1="197.29166666666666" x2="54.25913511316207" y2="213.95833333333334"/>
        <line fill="none" stroke="#ff0000" stroke-width="2" x1="50.70238298148048" y1="197.29166666666666" x2="50.70238298148048" y2="213.95833333333334"/>
        <line fill="none" stroke="#ff0000" stroke-width="2" x1="54.48496671989846" y1="197.29166666666666" x2="54.48496671989846" y2="213.95833333333334"/>
        <line fill="none" stroke="#ff0000" stroke-width="2" x1="59.245263982237766" y1="197.29166666666666" x2="59.245263982237766" y2="213.95833333333334"/>
        <line fill="none" stroke="#ff0000" stroke-width="2" x1="64.83378944231539" y1="197.29166666666666" x2="64.83378944231539" y2="213.95833333333334"/>
        <line fill="none" stroke="#ff0000" stroke-width="2" x1="71.34893067192571" y1="197.29166666666666" x2="71.34893067192571" y2="213.95833333333334"/>
        <line fill="none" stroke="#ff0000" stroke-width="2" x1="71.34332443670272" y1="197.29166666666666" x2="71.34332443670272" y2="213.95833333333334"/>
        <line fill="none" stroke="#ff0000" stroke-width="2" x1="73.91116485378066" y1="197.29166666666666" x2="73.91116485378066" y2="213.95833333333334"/>
        <line fill="none" stroke="#ff0000" stroke-width="2" x1="78.30777843068319" y1="197.29166666666666" x2="78.30777843068319" y2="213.95833333333334"/>
        <line fill="none" stroke="#ff0000" stroke-width="2" x1="81.22847561637144" y1="197.29166666666666" x2="81.22847561637144" y2="213.95833333333334"/>
        <line fill="none" stroke="#ff0000" stroke-width="2" x1="84.29200947027063" y1="197.29166666666666" x2="84.29200947027063" y2="213.95833333333334"/>
        <line fill="none" stroke="#ff0000" stroke-width="2" x1="85.07998587013174" y1="197.29166666666666" x2="85.07998587013174" y2="213.95833333333334"/>
        <line fill="none" stroke="#ff0000" stroke-width="2" x1="87.35360889218254" y1="197.29166666666666" x2="87.35360889218254" y2="213.95833333333334"/>
        <line fill="none" stroke="#ff0000" stroke-width="2" x1="87.57221017857275" y1="197.29166666666666" x2="87.57221017857275" y2="213.95833333333334"/>
        <line fill="none" stroke="#ff0000" stroke-width="2" x1="94.22962069378357" y1="197.29166666666666" x2="94.22962069378357" y2="213.95833333333334"/>
        <line fill="none" stroke="#ff0000" stroke-width="2" x1="98.04849311966387" y1="197.29166666666666" x2="98.04849311966387" y2="213.95833333333334"/>
        <line fill="none" stroke="#ff0000" stroke-width="2" x1="98.56468658523228" y1="197.29166666666666" x2="98.56468658523228" y2="213.95833333333334"/>
        <line fill="none" stroke="#ff0000" stroke-width="2" x1="98.5657261520286" y1="197.29166666666666" x2="98.5657261520286" y2="213.95833333333334"/>
        <line fill="none" stroke="#ff0000" stroke-width="2" x1="99.60273020675714" y1="197.29166666666666" x2="99.60273020675714" y2="213.95833333333334"/>
        <line fill="none" stroke="#ff0000" stroke-width="2" x1="106.15291588042065" y1="197.29166666666666" x2="106.15291588042065" y2="213.95833333333334"/>
        <line fill="none" stroke="#ff0000" stroke-width="2" x1="108.7246032658355" y1="197.29166666666666" x2="108.7246032658355" y2="213.95833333333334"/>
        <line fill="none" stroke="#ff0000" stroke-width="2" x1="109.61192969356341" y1="197.29166666666666" x2="109.61192969356341" y2="213.95833333333334"/>
        <line fill="none" stroke="#ff0000" stroke-width="2" x1="111.32180763697247" y1="197.29166666666666" x2="111.32180763697247" y2="213.95833333333334"/>
        <line fill="none" stroke="#ff0000" stroke-width="2" x1="111.42196589946386" y1="197.29166666666666" x2="111.42196589946386" y2="213.95833333333334"/>
        <line fill="none" stroke="#ff0000" stroke-width="2" x1="112.86523970287689" y1="197.29166666666666" x2="112.86523970287689" y2="213.95833333333334"/>
        <line fill="none" stroke="#ff0000" stroke-width="2" x1="115.18948829513043" y1="197.29166666666666" x2="115.18948829513043" y2="213.95833333333334"/>
        <line fill="none" stroke="#ff0000" stroke-width="2" x1="130.7978107306376" y1="197.29166666666666" x2="130.7978107306376" y2="213.95833333333334"/>
        <line fill="none" stroke="#ff0000" stroke-width="2" x1="134.4618105514884" y1="197.29166666666666" x2="134.4618105514884" y2="213.95833333333334"/>
        <line fill="none" stroke="#ff0000" stroke-width="2" x1="136.45300650339522" y1="197.29166666666666" x2="136.45300650339522" y2="213.95833333333334"/>
        <line fill="none" stroke="#ff0000" stroke-width="2" x1="143.11478186637262" y1="197.29166666666666" x2="143.11478186637262" y2="213.95833333333334"/>
        <text x="171.7495902738329" y="236.80555555555557" font-size="16.666666666666668" >NC_000009.12</text>
        <line stroke="#BDBDBD" stroke-width="16.666666666666668" x1="20" y1="228.47222222222223" x2="151.7495902738329" y2="228.47222222222223" stroke-linecap="round"/>
        <line fill="none" stroke="#ff0000" stroke-width="2" x1="86.88660540457433" y1="220.13888888888889" x2="86.88660540457433" y2="236.80555555555557"/>
        <line fill="none" stroke="#ff0000" stroke-width="2" x1="91.63955525250522" y1="220.13888888888889" x2="91.63955525250522" y2="236.80555555555557"/>
        <line fill="none" stroke="#ff0000" stroke-width="2" x1="25.226574385968032" y1="220.13888888888889" x2="25.226574385968032" y2="236.80555555555557"/>
        <line fill="none" stroke="#ff0000" stroke-width="2" x1="27.2609285436542" y1="220.13888888888889" x2="27.2609285436542" y2="236.80555555555557"/>
        <line fill="none" stroke="#ff0000" stroke-width="2" x1="31.20187866928343" y1="220.13888888888889" x2="31.20187866928343" y2="236.80555555555557"/>
        <line fill="none" stroke="#ff0000" stroke-width="2" x1="34.991546122473764" y1="220.13888888888889" x2="34.991546122473764" y2="236.80555555555557"/>
        <line fill="none" stroke="#ff0000" stroke-width="2" x1="36.32092262676126" y1="220.13888888888889" x2="36.32092262676126" y2="236.80555555555557"/>
        <line fill="none" stroke="#ff0000" stroke-width="2" x1="83.8462495111055" y1="220.13888888888889" x2="83.8462495111055" y2="236.80555555555557"/>
        <line fill="none" stroke="#ff0000" stroke-width="2" x1="88.61291269209588" y1="220.13888888888889" x2="88.61291269209588" y2="236.80555555555557"/>
        <text x="168.60033595051277" y="259.65277777777777" font-size="16.666666666666668" >NC_000011.10</text>
        <line stroke="#BDBDBD" stroke-width="16.666666666666668" x1="20" y1="251.31944444444443" x2="148.60033595051277" y2="251.31944444444443" stroke-linecap="round"/>
        <line fill="none" stroke="#ff0000" stroke-width="2" x1="26.805191789593998" y1="242.9861111111111" x2="26.805191789593998" y2="259.65277777777777"/>
        <line fill="none" stroke="#ff0000" stroke-width="2" x1="77.6429354810995" y1="242.9861111111111" x2="77.6429354810995" y2="259.65277777777777"/>
        <line fill="none" stroke="#ff0000" stroke-width="2" x1="51.16955306633169" y1="242.9861111111111" x2="51.16955306633169" y2="259.65277777777777"/>
        <line fill="none" stroke="#ff0000" stroke-width="2" x1="32.91825580913796" y1="242.9861111111111" x2="32.91825580913796" y2="259.65277777777777"/>
        <line fill="none" stroke="#ff0000" stroke-width="2" x1="32.995736854912245" y1="242.9861111111111" x2="32.995736854912245" y2="259.65277777777777"/>
        <line fill="none" stroke="#ff0000" stroke-width="2" x1="34.08547512494778" y1="242.9861111111111" x2="34.08547512494778" y2="259.65277777777777"/>
        <line fill="none" stroke="#ff0000" stroke-width="2" x1="43.93418339570638" y1="242.9861111111111" x2="43.93418339570638" y2="259.65277777777777"/>
        <line fill="none" stroke="#ff0000" stroke-width="2" x1="57.04691054655847" y1="242.9861111111111" x2="57.04691054655847" y2="259.65277777777777"/>
        <line fill="none" stroke="#ff0000" stroke-width="2" x1="59.54988561308631" y1="242.9861111111111" x2="59.54988561308631" y2="259.65277777777777"/>
        <line fill="none" stroke="#ff0000" stroke-width="2" x1="84.57447366780022" y1="242.9861111111111" x2="84.57447366780022" y2="259.65277777777777"/>
        <line fill="none" stroke="#ff0000" stroke-width="2" x1="101.39076605673918" y1="242.9861111111111" x2="101.39076605673918" y2="259.65277777777777"/>
        <line fill="none" stroke="#ff0000" stroke-width="2" x1="103.3123119852769" y1="242.9861111111111" x2="103.3123119852769" y2="259.65277777777777"/>
        <line fill="none" stroke="#ff0000" stroke-width="2" x1="103.58465563829033" y1="242.9861111111111" x2="103.58465563829033" y2="259.65277777777777"/>
        <line fill="none" stroke="#ff0000" stroke-width="2" x1="104.50989579058798" y1="242.9861111111111" x2="104.50989579058798" y2="259.65277777777777"/>
        <line fill="none" stroke="#ff0000" stroke-width="2" x1="147.455867154207" y1="242.9861111111111" x2="147.455867154207" y2="259.65277777777777"/>
        <line fill="none" stroke="#ff0000" stroke-width="2" x1="112.15189505994267" y1="242.9861111111111" x2="112.15189505994267" y2="259.65277777777777"/>
        <line fill="none" stroke="#ff0000" stroke-width="2" x1="118.92172063480844" y1="242.9861111111111" x2="118.92172063480844" y2="259.65277777777777"/>
        <line fill="none" stroke="#ff0000" stroke-width="2" x1="130.97327856283886" y1="242.9861111111111" x2="130.97327856283886" y2="259.65277777777777"/>
        <line fill="none" stroke="#ff0000" stroke-width="2" x1="131.76186518460145" y1="242.9861111111111" x2="131.76186518460145" y2="259.65277777777777"/>
        <line fill="none" stroke="#ff0000" stroke-width="2" x1="137.8786467026249" y1="242.9861111111111" x2="137.8786467026249" y2="259.65277777777777"/>
        <line fill="none" stroke="#ff0000" stroke-width="2" x1="144.67985634211908" y1="242.9861111111111" x2="144.67985634211908" y2="259.65277777777777"/>
        <text x="167.37303786094026" y="282.49999999999994" font-size="16.666666666666668" >NC_000010.11</text>
        <line stroke="#BDBDBD" stroke-width="16.666666666666668" x1="20" y1="274.16666666666663" x2="147.37303786094026" y2="274.16666666666663" stroke-linecap="round"/>
        <line fill="none" stroke="#ff0000" stroke-width="2" x1="60.228749386640835" y1="265.8333333333333" x2="60.228749386640835" y2="282.49999999999994"/>
        <line fill="none" stroke="#ff0000" stroke-width="2" x1="62.346908621445564" y1="265.8333333333333" x2="62.346908621445564" y2="282.49999999999994"/>
        <line fill="none" stroke="#ff0000" stroke-width="2" x1="26.716065120541906" y1="265.8333333333333" x2="26.716065120541906" y2="282.49999999999994"/>
        <line fill="none" stroke="#ff0000" stroke-width="2" x1="38.088090982077276" y1="265.8333333333333" x2="38.088090982077276" y2="282.49999999999994"/>
        <line fill="none" stroke="#ff0000" stroke-width="2" x1="56.80878596725718" y1="265.8333333333333" x2="56.80878596725718" y2="282.49999999999994"/>
        <line fill="none" stroke="#ff0000" stroke-width="2" x1="66.8816227449366" y1="265.8333333333333" x2="66.8816227449366" y2="282.49999999999994"/>
        <line fill="none" stroke="#ff0000" stroke-width="2" x1="82.38199016697997" y1="265.8333333333333" x2="82.38199016697997" y2="282.49999999999994"/>
        <line fill="none" stroke="#ff0000" stroke-width="2" x1="83.191190103615" y1="265.8333333333333" x2="83.191190103615" y2="282.49999999999994"/>
        <line fill="none" stroke="#ff0000" stroke-width="2" x1="109.04997339331935" y1="265.8333333333333" x2="109.04997339331935" y2="282.49999999999994"/>
        <line fill="none" stroke="#ff0000" stroke-width="2" x1="110.53861495794605" y1="265.8333333333333" x2="110.53861495794605" y2="282.49999999999994"/>
        <text x="166.8759945104586" y="305.3472222222222" font-size="16.666666666666668" >NC_000012.12</text>
        <line stroke="#BDBDBD" stroke-width="16.666666666666668" x1="20" y1="297.01388888888886" x2="146.8759945104586" y2="297.01388888888886" stroke-linecap="round"/>
        <line fill="none" stroke="#ff0000" stroke-width="2" x1="64.3579353571748" y1="288.68055555555554" x2="64.3579353571748" y2="305.3472222222222"/>
        <line fill="none" stroke="#ff0000" stroke-width="2" x1="27.181097048777247" y1="288.68055555555554" x2="27.181097048777247" y2="305.3472222222222"/>
        <line fill="none" stroke="#ff0000" stroke-width="2" x1="29.122343339295753" y1="288.68055555555554" x2="29.122343339295753" y2="305.3472222222222"/>
        <line fill="none" stroke="#ff0000" stroke-width="2" x1="43.43733996191631" y1="288.68055555555554" x2="43.43733996191631" y2="305.3472222222222"/>
        <line fill="none" stroke="#ff0000" stroke-width="2" x1="45.81175526796616" y1="288.68055555555554" x2="45.81175526796616" y2="305.3472222222222"/>
        <line fill="none" stroke="#ff0000" stroke-width="2" x1="46.72532409341137" y1="288.68055555555554" x2="46.72532409341137" y2="305.3472222222222"/>
        <line fill="none" stroke="#ff0000" stroke-width="2" x1="51.57958124881825" y1="288.68055555555554" x2="51.57958124881825" y2="305.3472222222222"/>
        <line fill="none" stroke="#ff0000" stroke-width="2" x1="52.238108734915876" y1="288.68055555555554" x2="52.238108734915876" y2="305.3472222222222"/>
        <line fill="none" stroke="#ff0000" stroke-width="2" x1="60.224148446781314" y1="288.68055555555554" x2="60.224148446781314" y2="305.3472222222222"/>
        <line fill="none" stroke="#ff0000" stroke-width="2" x1="60.61118240179694" y1="288.68055555555554" x2="60.61118240179694" y2="305.3472222222222"/>
        <line fill="none" stroke="#ff0000" stroke-width="2" x1="62.74247235530278" y1="288.68055555555554" x2="62.74247235530278" y2="305.3472222222222"/>
        <line fill="none" stroke="#ff0000" stroke-width="2" x1="63.21233941152209" y1="288.68055555555554" x2="63.21233941152209" y2="305.3472222222222"/>
        <line fill="none" stroke="#ff0000" stroke-width="2" x1="75.28647650189228" y1="288.68055555555554" x2="75.28647650189228" y2="305.3472222222222"/>
        <line fill="none" stroke="#ff0000" stroke-width="2" x1="93.38696803075422" y1="288.68055555555554" x2="93.38696803075422" y2="305.3472222222222"/>
        <line fill="none" stroke="#ff0000" stroke-width="2" x1="94.29615201676368" y1="288.68055555555554" x2="94.29615201676368" y2="305.3472222222222"/>
        <line fill="none" stroke="#ff0000" stroke-width="2" x1="101.9143631037865" y1="288.68055555555554" x2="101.9143631037865" y2="305.3472222222222"/>
        <line fill="none" stroke="#ff0000" stroke-width="2" x1="103.74573803655461" y1="288.68055555555554" x2="103.74573803655461" y2="305.3472222222222"/>
        <text x="148.87303852749116" y="328.1944444444444" font-size="16.666666666666668" >NC_000013.11</text>
        <line stroke="#BDBDBD" stroke-width="16.666666666666668" x1="20" y1="319.8611111111111" x2="128.87303852749116" y2="319.8611111111111" stroke-linecap="round"/>
        <line fill="none" stroke="#ff0000" stroke-width="2" x1="70.01422781578347" y1="311.52777777777777" x2="70.01422781578347" y2="328.1944444444444"/>
        <line fill="none" stroke="#ff0000" stroke-width="2" x1="47.384727405015056" y1="311.52777777777777" x2="47.384727405015056" y2="328.1944444444444"/>
        <line fill="none" stroke="#ff0000" stroke-width="2" x1="49.753017644427985" y1="311.52777777777777" x2="49.753017644427985" y2="328.1944444444444"/>
        <line fill="none" stroke="#ff0000" stroke-width="2" x1="53.57683277251202" y1="311.52777777777777" x2="53.57683277251202" y2="328.1944444444444"/>
        <line fill="none" stroke="#ff0000" stroke-width="2" x1="61.605523282553875" y1="311.52777777777777" x2="61.605523282553875" y2="328.1944444444444"/>
        <line fill="none" stroke="#ff0000" stroke-width="2" x1="65.10065728194746" y1="311.52777777777777" x2="65.10065728194746" y2="328.1944444444444"/>
        <line fill="none" stroke="#ff0000" stroke-width="2" x1="76.5267929760249" y1="311.52777777777777" x2="76.5267929760249" y2="328.1944444444444"/>
        <line fill="none" stroke="#ff0000" stroke-width="2" x1="77.9645662144662" y1="311.52777777777777" x2="77.9645662144662" y2="328.1944444444444"/>
        <line fill="none" stroke="#ff0000" stroke-width="2" x1="85.32394611285925" y1="311.52777777777777" x2="85.32394611285925" y2="328.1944444444444"/>
        <line fill="none" stroke="#ff0000" stroke-width="2" x1="118.84385308343039" y1="311.52777777777777" x2="118.84385308343039" y2="328.1944444444444"/>
        <text x="141.90393313848614" y="351.04166666666663" font-size="16.666666666666668" >NC_000014.9</text>
        <line stroke="#BDBDBD" stroke-width="16.666666666666668" x1="20" y1="342.7083333333333" x2="121.90393313848614" y2="342.7083333333333" stroke-linecap="round"/>
        <line fill="none" stroke="#ff0000" stroke-width="2" x1="96.19569663739875" y1="334.375" x2="96.19569663739875" y2="351.04166666666663"/>
        <line fill="none" stroke="#ff0000" stroke-width="2" x1="55.94481266506085" y1="334.375" x2="55.94481266506085" y2="351.04166666666663"/>
        <line fill="none" stroke="#ff0000" stroke-width="2" x1="55.70095618861613" y1="334.375" x2="55.70095618861613" y2="351.04166666666663"/>
        <line fill="none" stroke="#ff0000" stroke-width="2" x1="48.65563398891514" y1="334.375" x2="48.65563398891514" y2="351.04166666666663"/>
        <line fill="none" stroke="#ff0000" stroke-width="2" x1="56.814905321988626" y1="334.375" x2="56.814905321988626" y2="351.04166666666663"/>
        <line fill="none" stroke="#ff0000" stroke-width="2" x1="57.9081078626943" y1="334.375" x2="57.9081078626943" y2="351.04166666666663"/>
        <line fill="none" stroke="#ff0000" stroke-width="2" x1="83.84634661349855" y1="334.375" x2="83.84634661349855" y2="351.04166666666663"/>
        <line fill="none" stroke="#ff0000" stroke-width="2" x1="111.7985975226266" y1="334.375" x2="111.7985975226266" y2="351.04166666666663"/>
        <text x="137.09400512948088" y="373.88888888888886" font-size="16.666666666666668" >NC_000015.10</text>
        <line stroke="#BDBDBD" stroke-width="16.666666666666668" x1="20" y1="365.55555555555554" x2="117.09400512948088" y2="365.55555555555554" stroke-linecap="round"/>
        <line fill="none" stroke="#ff0000" stroke-width="2" x1="39.26952818259682" y1="357.22222222222223" x2="39.26952818259682" y2="373.88888888888886"/>
        <line fill="none" stroke="#ff0000" stroke-width="2" x1="39.43140548770626" y1="357.22222222222223" x2="39.43140548770626" y2="373.88888888888886"/>
        <line fill="none" stroke="#ff0000" stroke-width="2" x1="63.560973178018415" y1="357.22222222222223" x2="63.560973178018415" y2="373.88888888888886"/>
        <line fill="none" stroke="#ff0000" stroke-width="2" x1="64.94803040775363" y1="357.22222222222223" x2="64.94803040775363" y2="373.88888888888886"/>
        <line fill="none" stroke="#ff0000" stroke-width="2" x1="71.29878680575132" y1="357.22222222222223" x2="71.29878680575132" y2="373.88888888888886"/>
        <line fill="none" stroke="#ff0000" stroke-width="2" x1="77.3448016228855" y1="357.22222222222223" x2="77.3448016228855" y2="373.88888888888886"/>
        <line fill="none" stroke="#ff0000" stroke-width="2" x1="88.3409964800088" y1="357.22222222222223" x2="88.3409964800088" y2="373.88888888888886"/>
        <line fill="none" stroke="#ff0000" stroke-width="2" x1="92.75118440027092" y1="357.22222222222223" x2="92.75118440027092" y2="373.88888888888886"/>
        <text x="126.00068122373602" y="396.7361111111111" font-size="16.666666666666668" >NC_000016.10</text>
        <line stroke="#BDBDBD" stroke-width="16.666666666666668" x1="20" y1="388.40277777777777" x2="106.00068122373602" y2="388.40277777777777" stroke-linecap="round"/>
        <line fill="none" stroke="#ff0000" stroke-width="2" x1="41.98498518078343" y1="380.06944444444446" x2="41.98498518078343" y2="396.7361111111111"/>
        <text x="119.25977217033376" y="419.5833333333333" font-size="16.666666666666668" >NC_000017.11</text>
        <line stroke="#BDBDBD" stroke-width="16.666666666666668" x1="20" y1="411.25" x2="99.25977217033376" y2="411.25" stroke-linecap="round"/>
        <line fill="none" stroke="#ff0000" stroke-width="2" x1="77.57773979201613" y1="402.9166666666667" x2="77.57773979201613" y2="419.5833333333333"/>
        <line fill="none" stroke="#ff0000" stroke-width="2" x1="80.25932804669304" y1="402.9166666666667" x2="80.25932804669304" y2="419.5833333333333"/>
        <text x="116.51410109615672" y="442.43055555555554" font-size="16.666666666666668" >NC_000018.10</text>
        <line stroke="#BDBDBD" stroke-width="16.666666666666668" x1="20" y1="434.09722222222223" x2="96.51410109615672" y2="434.09722222222223" stroke-linecap="round"/>
        <line fill="none" stroke="#ff0000" stroke-width="2" x1="33.4826463330983" y1="425.7638888888889" x2="33.4826463330983" y2="442.43055555555554"/>
        <line fill="none" stroke="#ff0000" stroke-width="2" x1="34.37041543350046" y1="425.7638888888889" x2="34.37041543350046" y2="442.43055555555554"/>
        <line fill="none" stroke="#ff0000" stroke-width="2" x1="48.57996932908166" y1="425.7638888888889" x2="48.57996932908166" y2="442.43055555555554"/>
        <line fill="none" stroke="#ff0000" stroke-width="2" x1="55.09782561776077" y1="425.7638888888889" x2="55.09782561776077" y2="442.43055555555554"/>
        <line fill="none" stroke="#ff0000" stroke-width="2" x1="55.10851354488738" y1="425.7638888888889" x2="55.10851354488738" y2="442.43055555555554"/>
        <line fill="none" stroke="#ff0000" stroke-width="2" x1="61.73333287944624" y1="425.7638888888889" x2="61.73333287944624" y2="442.43055555555554"/>
        <line fill="none" stroke="#ff0000" stroke-width="2" x1="63.288467687683216" y1="425.7638888888889" x2="63.288467687683216" y2="442.43055555555554"/>
        <line fill="none" stroke="#ff0000" stroke-width="2" x1="78.56991490861407" y1="425.7638888888889" x2="78.56991490861407" y2="442.43055555555554"/>
        <line fill="none" stroke="#ff0000" stroke-width="2" x1="86.86509151260547" y1="425.7638888888889" x2="86.86509151260547" y2="442.43055555555554"/>
        <text x="101.34983171206213" y="465.27777777777777" font-size="16.666666666666668" >NC_000020.11</text>
        <line stroke="#BDBDBD" stroke-width="16.666666666666668" x1="20" y1="456.94444444444446" x2="81.34983171206213" y2="456.94444444444446" stroke-linecap="round"/>
        <line fill="none" stroke="#ff0000" stroke-width="2" x1="45.35368424853547" y1="448.61111111111114" x2="45.35368424853547" y2="465.27777777777777"/>
        <line fill="none" stroke="#ff0000" stroke-width="2" x1="48.44099105301859" y1="448.61111111111114" x2="48.44099105301859" y2="465.27777777777777"/>
        <line fill="none" stroke="#ff0000" stroke-width="2" x1="47.472309955620595" y1="448.61111111111114" x2="47.472309955620595" y2="465.27777777777777"/>
        <line fill="none" stroke="#ff0000" stroke-width="2" x1="47.45522374237855" y1="448.61111111111114" x2="47.45522374237855" y2="465.27777777777777"/>
        <line fill="none" stroke="#ff0000" stroke-width="2" x1="47.55324956015956" y1="448.61111111111114" x2="47.55324956015956" y2="465.27777777777777"/>
        <line fill="none" stroke="#ff0000" stroke-width="2" x1="48.45430360071064" y1="448.61111111111114" x2="48.45430360071064" y2="465.27777777777777"/>
        <text x="95.80304695322201" y="488.12499999999994" font-size="16.666666666666668" >NC_000019.10</text>
        <line stroke="#BDBDBD" stroke-width="16.666666666666668" x1="20" y1="479.79166666666663" x2="75.80304695322201" y2="479.79166666666663" stroke-linecap="round"/>
        <line fill="none" stroke="#ff0000" stroke-width="2" x1="59.06262390072934" y1="471.4583333333333" x2="59.06262390072934" y2="488.12499999999994"/>
        <text x="94.47959750284832" y="510.9722222222222" font-size="16.666666666666668" >NC_000024.10</text>
        <line stroke="#BDBDBD" stroke-width="16.666666666666668" x1="20" y1="502.63888888888886" x2="74.47959750284832" y2="502.63888888888886" stroke-linecap="round"/>
        <line fill="none" stroke="#ff0000" stroke-width="2" x1="32.22324733476039" y1="494.30555555555554" x2="32.22324733476039" y2="510.9722222222222"/>
        <text x="88.37838092724225" y="533.8194444444445" font-size="16.666666666666668" >NC_000022.11</text>
        <line stroke="#BDBDBD" stroke-width="16.666666666666668" x1="20" y1="525.4861111111111" x2="68.37838092724225" y2="525.4861111111111" stroke-linecap="round"/>
        <line fill="none" stroke="#ff0000" stroke-width="2" x1="30.884231038000806" y1="517.1527777777777" x2="30.884231038000806" y2="533.8194444444445"/>
        <text x="84.46716793349634" y="556.6666666666666" font-size="16.666666666666668" >NC_000021.9</text>
        <line stroke="#BDBDBD" stroke-width="16.666666666666668" x1="20" y1="548.3333333333333" x2="64.46716793349634" y2="548.3333333333333" stroke-linecap="round"/>
        <line fill="none" stroke="#ff0000" stroke-width="2" x1="30.241088569298142" y1="539.9999999999999" x2="30.241088569298142" y2="556.6666666666666"/>
        <line fill="none" stroke="#ff0000" stroke-width="2" x1="36.3394539520883" y1="539.9999999999999" x2="36.3394539520883" y2="556.6666666666666"/>
    </g>
</svg>
