<?xml version = "1.0" ?>
<svg width="725" height="380" dpi="72" version="1.1" xmlns="http://www.w3.org/2000/svg" xmlns:xlink="http://www.w3.org/1999/xlink">
<!-- <rect x="0" y="0" fill="#FFFFFF" stroke="#000000" stroke-width="3" width="840" height="600"/> -->
    <g transform="rotate(90 300 300) translate(0 -70)">
        <text x="82.15961880929828" y="31.180555555555557" font-size="16.666666666666668" >NC_000021.9</text>
        <line stroke="#BDBDBD" stroke-width="16.666666666666668" x1="20" y1="22.84722222222222" x2="62.15961880929829" y2="22.84722222222222" stroke-linecap="round"/>
        <line fill="none" stroke="#ff0000" stroke-width="2" x1="26.216298606875053" y1="14.513888888888888" x2="26.216298606875053" y2="31.180555555555557"/>
        <text x="85.8678659624544" y="54.02777777777778" font-size="16.666666666666668" >NC_000022.11</text>
        <line stroke="#BDBDBD" stroke-width="16.666666666666668" x1="20" y1="45.69444444444444" x2="65.8678659624544" y2="45.69444444444444" stroke-linecap="round"/>
        <line fill="none" stroke="#ff0000" stroke-width="2" x1="45.201393817078255" y1="37.36111111111111" x2="45.201393817078255" y2="54.02777777777778"/>
        <line fill="none" stroke="#ff0000" stroke-width="2" x1="49.663922044624385" y1="37.36111111111111" x2="49.663922044624385" y2="54.02777777777778"/>
        <line fill="none" stroke="#ff0000" stroke-width="2" x1="60.258876389135786" y1="37.36111111111111" x2="60.258876389135786" y2="54.02777777777778"/>
        <text x="91.65247013345132" y="76.87499999999999" font-size="16.666666666666668" >NC_000024.10</text>
        <line stroke="#BDBDBD" stroke-width="16.666666666666668" x1="20" y1="68.54166666666666" x2="71.65247013345132" y2="68.54166666666666" stroke-linecap="round"/>
        <text x="92.90724139355444" y="99.72222222222221" font-size="16.666666666666668" >NC_000019.10</text>
        <line stroke="#BDBDBD" stroke-width="16.666666666666668" x1="20" y1="91.38888888888889" x2="72.90724139355444" y2="91.38888888888889" stroke-linecap="round"/>
        <line fill="none" stroke="#ff0000" stroke-width="2" x1="49.03664066286537" y1="83.05555555555556" x2="49.03664066286537" y2="99.72222222222221"/>
        <text x="98.16618505733047" y="122.56944444444444" font-size="16.666666666666668" >NC_000020.11</text>
        <line stroke="#BDBDBD" stroke-width="16.666666666666668" x1="20" y1="114.23611111111111" x2="78.16618505733047" y2="114.23611111111111" stroke-linecap="round"/>
        <line fill="none" stroke="#ff0000" stroke-width="2" x1="29.904960619772318" y1="105.90277777777779" x2="29.904960619772318" y2="122.56944444444444"/>
        <line fill="none" stroke="#ff0000" stroke-width="2" x1="51.07230474330956" y1="105.90277777777779" x2="51.07230474330956" y2="122.56944444444444"/>
        <text x="112.54353010685301" y="145.41666666666666" font-size="16.666666666666668" >NC_000018.10</text>
        <line stroke="#BDBDBD" stroke-width="16.666666666666668" x1="20" y1="137.08333333333331" x2="92.54353010685301" y2="137.08333333333331" stroke-linecap="round"/>
        <line fill="none" stroke="#ff0000" stroke-width="2" x1="37.77344032182987" y1="128.74999999999997" x2="37.77344032182987" y2="145.41666666666666"/>
        <line fill="none" stroke="#ff0000" stroke-width="2" x1="25.964075504208047" y1="128.74999999999997" x2="25.964075504208047" y2="145.41666666666666"/>
        <text x="115.14671918415476" y="168.26388888888889" font-size="16.666666666666668" >NC_000017.11</text>
        <line stroke="#BDBDBD" stroke-width="16.666666666666668" x1="20" y1="159.93055555555554" x2="95.14671918415476" y2="159.93055555555554" stroke-linecap="round"/>
        <line fill="none" stroke="#ff0000" stroke-width="2" x1="38.404641619905036" y1="151.5972222222222" x2="38.404641619905036" y2="168.26388888888889"/>
        <text x="121.53782006435065" y="191.11111111111111" font-size="16.666666666666668" >NC_000016.10</text>
        <line stroke="#BDBDBD" stroke-width="16.666666666666668" x1="20" y1="182.77777777777777" x2="101.53782006435065" y2="182.77777777777777" stroke-linecap="round"/>
        <line fill="none" stroke="#ff0000" stroke-width="2" x1="50.398464539710275" y1="174.44444444444443" x2="50.398464539710275" y2="191.11111111111111"/>
        <line fill="none" stroke="#ff0000" stroke-width="2" x1="64.03460603441559" y1="174.44444444444443" x2="64.03460603441559" y2="191.11111111111111"/>
        <line fill="none" stroke="#ff0000" stroke-width="2" x1="67.9540042681419" y1="174.44444444444443" x2="67.9540042681419" y2="191.11111111111111"/>
        <line fill="none" stroke="#ff0000" stroke-width="2" x1="20.809838644945934" y1="174.44444444444443" x2="20.809838644945934" y2="191.11111111111111"/>
        <text x="132.05547452558687" y="213.95833333333334" font-size="16.666666666666668" >NC_000015.10</text>
        <line stroke="#BDBDBD" stroke-width="16.666666666666668" x1="20" y1="205.625" x2="112.05547452558689" y2="205.625" stroke-linecap="round"/>
        <line fill="none" stroke="#ff0000" stroke-width="2" x1="100.77363404829508" y1="197.29166666666666" x2="100.77363404829508" y2="213.95833333333334"/>
        <line fill="none" stroke="#ff0000" stroke-width="2" x1="106.26235629274095" y1="197.29166666666666" x2="106.26235629274095" y2="213.95833333333334"/>
        <text x="136.61579938511267" y="236.80555555555557" font-size="16.666666666666668" >NC_000014.9</text>
        <line stroke="#BDBDBD" stroke-width="16.666666666666668" x1="20" y1="228.47222222222223" x2="116.61579938511265" y2="228.47222222222223" stroke-linecap="round"/>
        <line fill="none" stroke="#ff0000" stroke-width="2" x1="52.355140907380985" y1="220.13888888888889" x2="52.355140907380985" y2="236.80555555555557"/>
        <line fill="none" stroke="#ff0000" stroke-width="2" x1="65.21704793372871" y1="220.13888888888889" x2="65.21704793372871" y2="236.80555555555557"/>
        <line fill="none" stroke="#ff0000" stroke-width="2" x1="65.33926303589416" y1="220.13888888888889" x2="65.33926303589416" y2="236.80555555555557"/>
        <line fill="none" stroke="#ff0000" stroke-width="2" x1="67.82814995285494" y1="220.13888888888889" x2="67.82814995285494" y2="236.80555555555557"/>
        <line fill="none" stroke="#ff0000" stroke-width="2" x1="102.98346408131344" y1="220.13888888888889" x2="102.98346408131344" y2="236.80555555555557"/>
        <text x="143.22325473467973" y="259.65277777777777" font-size="16.666666666666668" >NC_000013.11</text>
        <line stroke="#BDBDBD" stroke-width="16.666666666666668" x1="20" y1="251.31944444444443" x2="123.22325473467973" y2="251.31944444444443" stroke-linecap="round"/>
        <line fill="none" stroke="#ff0000" stroke-width="2" x1="38.50502956658501" y1="242.9861111111111" x2="38.50502956658501" y2="259.65277777777777"/>
        <line fill="none" stroke="#ff0000" stroke-width="2" x1="43.14129411737845" y1="242.9861111111111" x2="43.14129411737845" y2="259.65277777777777"/>
        <line fill="none" stroke="#ff0000" stroke-width="2" x1="50.18292239469659" y1="242.9861111111111" x2="50.18292239469659" y2="259.65277777777777"/>
        <line fill="none" stroke="#ff0000" stroke-width="2" x1="64.66849522353141" y1="242.9861111111111" x2="64.66849522353141" y2="259.65277777777777"/>
        <line fill="none" stroke="#ff0000" stroke-width="2" x1="96.13544609393966" y1="242.9861111111111" x2="96.13544609393966" y2="259.65277777777777"/>
        <line fill="none" stroke="#ff0000" stroke-width="2" x1="98.6451980133136" y1="242.9861111111111" x2="98.6451980133136" y2="259.65277777777777"/>
        <text x="160.29197750149987" y="282.49999999999994" font-size="16.666666666666668" >NC_000012.12</text>
        <line stroke="#BDBDBD" stroke-width="16.666666666666668" x1="20" y1="274.16666666666663" x2="140.29197750149987" y2="274.16666666666663" stroke-linecap="round"/>
        <line fill="none" stroke="#ff0000" stroke-width="2" x1="89.03490895679971" y1="265.8333333333333" x2="89.03490895679971" y2="282.49999999999994"/>
        <line fill="none" stroke="#ff0000" stroke-width="2" x1="108.07418710422944" y1="265.8333333333333" x2="108.07418710422944" y2="282.49999999999994"/>
        <text x="160.76322762067417" y="305.3472222222222" font-size="16.666666666666668" >NC_000010.11</text>
        <line stroke="#BDBDBD" stroke-width="16.666666666666668" x1="20" y1="297.01388888888886" x2="140.76322762067417" y2="297.01388888888886" stroke-linecap="round"/>
        <text x="161.92683713363303" y="328.1944444444444" font-size="16.666666666666668" >NC_000011.10</text>
        <line stroke="#BDBDBD" stroke-width="16.666666666666668" x1="20" y1="319.8611111111111" x2="141.92683713363303" y2="319.8611111111111" stroke-linecap="round"/>
        <line fill="none" stroke="#ff0000" stroke-width="2" x1="111.00909785873425" y1="311.52777777777777" x2="111.00909785873425" y2="328.1944444444444"/>
        <line fill="none" stroke="#ff0000" stroke-width="2" x1="81.10780019553235" y1="311.52777777777777" x2="81.10780019553235" y2="328.1944444444444"/>
        <line fill="none" stroke="#ff0000" stroke-width="2" x1="103.98130707555448" y1="311.52777777777777" x2="103.98130707555448" y2="328.1944444444444"/>
        <line fill="none" stroke="#ff0000" stroke-width="2" x1="105.89234886598722" y1="311.52777777777777" x2="105.89234886598722" y2="328.1944444444444"/>
        <text x="164.91266618402994" y="351.04166666666663" font-size="16.666666666666668" >NC_000009.12</text>
        <line stroke="#BDBDBD" stroke-width="16.666666666666668" x1="20" y1="342.7083333333333" x2="144.91266618402994" y2="342.7083333333333" stroke-linecap="round"/>
        <line fill="none" stroke="#ff0000" stroke-width="2" x1="96.56611700112735" y1="334.375" x2="96.56611700112735" y2="351.04166666666663"/>
        <line fill="none" stroke="#ff0000" stroke-width="2" x1="104.03460367664874" y1="334.375" x2="104.03460367664874" y2="351.04166666666663"/>
        <text x="170.99961026021992" y="373.88888888888886" font-size="16.666666666666668" >NC_000008.11</text>
        <line stroke="#BDBDBD" stroke-width="16.666666666666668" x1="20" y1="365.55555555555554" x2="150.99961026021992" y2="365.55555555555554" stroke-linecap="round"/>
        <line fill="none" stroke="#ff0000" stroke-width="2" x1="111.87539124135981" y1="357.22222222222223" x2="111.87539124135981" y2="373.88888888888886"/>
        <line fill="none" stroke="#ff0000" stroke-width="2" x1="131.69209809703727" y1="357.22222222222223" x2="131.69209809703727" y2="373.88888888888886"/>
        <line fill="none" stroke="#ff0000" stroke-width="2" x1="35.968792262826746" y1="357.22222222222223" x2="35.968792262826746" y2="373.88888888888886"/>
        <line fill="none" stroke="#ff0000" stroke-width="2" x1="80.01654441309422" y1="357.22222222222223" x2="80.01654441309422" y2="373.88888888888886"/>
        <text x="180.83979974605725" y="396.7361111111111" font-size="16.666666666666668" >NC_000023.11</text>
        <line stroke="#BDBDBD" stroke-width="16.666666666666668" x1="20" y1="388.40277777777777" x2="160.83979974605725" y2="388.40277777777777" stroke-linecap="round"/>
        <line fill="none" stroke="#ff0000" stroke-width="2" x1="139.62744563245468" y1="380.06944444444446" x2="139.62744563245468" y2="396.7361111111111"/>
        <line fill="none" stroke="#ff0000" stroke-width="2" x1="33.790677177889656" y1="380.06944444444446" x2="33.790677177889656" y2="396.7361111111111"/>
        <line fill="none" stroke="#ff0000" stroke-width="2" x1="41.30462062187299" y1="380.06944444444446" x2="41.30462062187299" y2="396.7361111111111"/>
        <line fill="none" stroke="#ff0000" stroke-width="2" x1="56.67821109440022" y1="380.06944444444446" x2="56.67821109440022" y2="396.7361111111111"/>
        <line fill="none" stroke="#ff0000" stroke-width="2" x1="71.73372693893003" y1="380.06944444444446" x2="71.73372693893003" y2="396.7361111111111"/>
        <line fill="none" stroke="#ff0000" stroke-width="2" x1="108.14860323603553" y1="380.06944444444446" x2="108.14860323603553" y2="396.7361111111111"/>
        <text x="183.82290570469138" y="419.5833333333333" font-size="16.666666666666668" >NC_000007.14</text>
        <line stroke="#BDBDBD" stroke-width="16.666666666666668" x1="20" y1="411.25" x2="163.82290570469138" y2="411.25" stroke-linecap="round"/>
        <line fill="none" stroke="#ff0000" stroke-width="2" x1="148.86369632823653" y1="402.9166666666667" x2="148.86369632823653" y2="419.5833333333333"/>
        <line fill="none" stroke="#ff0000" stroke-width="2" x1="63.80879340177549" y1="402.9166666666667" x2="63.80879340177549" y2="419.5833333333333"/>
        <line fill="none" stroke="#ff0000" stroke-width="2" x1="65.47167732165909" y1="402.9166666666667" x2="65.47167732165909" y2="419.5833333333333"/>
        <line fill="none" stroke="#ff0000" stroke-width="2" x1="102.25250483922665" y1="402.9166666666667" x2="102.25250483922665" y2="419.5833333333333"/>
        <text x="194.16650793876352" y="442.43055555555554" font-size="16.666666666666668" >NC_000006.12</text>
        <line stroke="#BDBDBD" stroke-width="16.666666666666668" x1="20" y1="434.09722222222223" x2="174.16650793876352" y2="434.09722222222223" stroke-linecap="round"/>
        <line fill="none" stroke="#ff0000" stroke-width="2" x1="113.8032860544624" y1="425.7638888888889" x2="113.8032860544624" y2="442.43055555555554"/>
        <line fill="none" stroke="#ff0000" stroke-width="2" x1="117.47960976295217" y1="425.7638888888889" x2="117.47960976295217" y2="442.43055555555554"/>
        <line fill="none" stroke="#ff0000" stroke-width="2" x1="138.17412515031373" y1="425.7638888888889" x2="138.17412515031373" y2="442.43055555555554"/>
        <line fill="none" stroke="#ff0000" stroke-width="2" x1="145.4285508188999" y1="425.7638888888889" x2="145.4285508188999" y2="442.43055555555554"/>
        <line fill="none" stroke="#ff0000" stroke-width="2" x1="174.10704399063076" y1="425.7638888888889" x2="174.10704399063076" y2="442.43055555555554"/>
        <line fill="none" stroke="#ff0000" stroke-width="2" x1="58.37886087624568" y1="425.7638888888889" x2="58.37886087624568" y2="442.43055555555554"/>
        <line fill="none" stroke="#ff0000" stroke-width="2" x1="85.24856313475027" y1="425.7638888888889" x2="85.24856313475027" y2="442.43055555555554"/>
        <line fill="none" stroke="#ff0000" stroke-width="2" x1="99.72204225906744" y1="425.7638888888889" x2="99.72204225906744" y2="442.43055555555554"/>
        <text x="203.85327733353415" y="465.27777777777777" font-size="16.666666666666668" >NC_000005.10</text>
        <line stroke="#BDBDBD" stroke-width="16.666666666666668" x1="20" y1="456.94444444444446" x2="183.85327733353415" y2="456.94444444444446" stroke-linecap="round"/>
        <line fill="none" stroke="#ff0000" stroke-width="2" x1="20.969500094825975" y1="448.61111111111114" x2="20.969500094825975" y2="465.27777777777777"/>
        <line fill="none" stroke="#ff0000" stroke-width="2" x1="154.14885279644582" y1="448.61111111111114" x2="154.14885279644582" y2="465.27777777777777"/>
        <line fill="none" stroke="#ff0000" stroke-width="2" x1="21.350862913514646" y1="448.61111111111114" x2="21.350862913514646" y2="465.27777777777777"/>
        <line fill="none" stroke="#ff0000" stroke-width="2" x1="173.81640245876807" y1="448.61111111111114" x2="173.81640245876807" y2="465.27777777777777"/>
        <line fill="none" stroke="#ff0000" stroke-width="2" x1="42.870220576704824" y1="448.61111111111114" x2="42.870220576704824" y2="465.27777777777777"/>
        <line fill="none" stroke="#ff0000" stroke-width="2" x1="61.01008687745454" y1="448.61111111111114" x2="61.01008687745454" y2="465.27777777777777"/>
        <line fill="none" stroke="#ff0000" stroke-width="2" x1="67.9994023687336" y1="448.61111111111114" x2="67.9994023687336" y2="465.27777777777777"/>
        <line fill="none" stroke="#ff0000" stroke-width="2" x1="73.11241647460147" y1="448.61111111111114" x2="73.11241647460147" y2="465.27777777777777"/>
        <line fill="none" stroke="#ff0000" stroke-width="2" x1="75.36842714734254" y1="448.61111111111114" x2="75.36842714734254" y2="465.27777777777777"/>
        <line fill="none" stroke="#ff0000" stroke-width="2" x1="99.87940753876369" y1="448.61111111111114" x2="99.87940753876369" y2="465.27777777777777"/>
        <text x="211.68435130409497" y="488.12499999999994" font-size="16.666666666666668" >NC_000004.12</text>
        <line stroke="#BDBDBD" stroke-width="16.666666666666668" x1="20" y1="479.79166666666663" x2="191.68435130409497" y2="479.79166666666663" stroke-linecap="round"/>
        <line fill="none" stroke="#ff0000" stroke-width="2" x1="150.0432968974637" y1="471.4583333333333" x2="150.0432968974637" y2="488.12499999999994"/>
        <line fill="none" stroke="#ff0000" stroke-width="2" x1="73.48775635947072" y1="471.4583333333333" x2="73.48775635947072" y2="488.12499999999994"/>
        <line fill="none" stroke="#ff0000" stroke-width="2" x1="75.8159474668696" y1="471.4583333333333" x2="75.8159474668696" y2="488.12499999999994"/>
        <line fill="none" stroke="#ff0000" stroke-width="2" x1="80.38417895014148" y1="471.4583333333333" x2="80.38417895014148" y2="488.12499999999994"/>
        <text x="218.97812506197482" y="510.9722222222222" font-size="16.666666666666668" >NC_000003.12</text>
        <line stroke="#BDBDBD" stroke-width="16.666666666666668" x1="20" y1="502.63888888888886" x2="198.97812506197482" y2="502.63888888888886" stroke-linecap="round"/>
        <line fill="none" stroke="#ff0000" stroke-width="2" x1="130.1430821952547" y1="494.30555555555554" x2="130.1430821952547" y2="510.9722222222222"/>
        <line fill="none" stroke="#ff0000" stroke-width="2" x1="154.32693144467513" y1="494.30555555555554" x2="154.32693144467513" y2="510.9722222222222"/>
        <line fill="none" stroke="#ff0000" stroke-width="2" x1="174.51058777719172" y1="494.30555555555554" x2="174.51058777719172" y2="510.9722222222222"/>
        <line fill="none" stroke="#ff0000" stroke-width="2" x1="56.05455538702342" y1="494.30555555555554" x2="56.05455538702342" y2="510.9722222222222"/>
        <line fill="none" stroke="#ff0000" stroke-width="2" x1="24.304219749012606" y1="494.30555555555554" x2="24.304219749012606" y2="510.9722222222222"/>
        <line fill="none" stroke="#ff0000" stroke-width="2" x1="25.04912840548256" y1="494.30555555555554" x2="25.04912840548256" y2="510.9722222222222"/>
        <text x="258.5996698118844" y="533.8194444444445" font-size="16.666666666666668" >NC_000002.12</text>
        <line stroke="#BDBDBD" stroke-width="16.666666666666668" x1="20" y1="525.4861111111111" x2="238.59966981188435" y2="525.4861111111111" stroke-linecap="round"/>
        <line fill="none" stroke="#ff0000" stroke-width="2" x1="119.80729813183201" y1="517.1527777777777" x2="119.80729813183201" y2="533.8194444444445"/>
        <line fill="none" stroke="#ff0000" stroke-width="2" x1="140.36954184148254" y1="517.1527777777777" x2="140.36954184148254" y2="533.8194444444445"/>
        <line fill="none" stroke="#ff0000" stroke-width="2" x1="144.0349027814768" y1="517.1527777777777" x2="144.0349027814768" y2="533.8194444444445"/>
        <line fill="none" stroke="#ff0000" stroke-width="2" x1="159.90139001213993" y1="517.1527777777777" x2="159.90139001213993" y2="533.8194444444445"/>
        <line fill="none" stroke="#ff0000" stroke-width="2" x1="167.94732738558466" y1="517.1527777777777" x2="167.94732738558466" y2="533.8194444444445"/>
        <line fill="none" stroke="#ff0000" stroke-width="2" x1="174.9512620075505" y1="517.1527777777777" x2="174.9512620075505" y2="533.8194444444445"/>
        <line fill="none" stroke="#ff0000" stroke-width="2" x1="42.39133821890069" y1="517.1527777777777" x2="42.39133821890069" y2="533.8194444444445"/>
        <line fill="none" stroke="#ff0000" stroke-width="2" x1="54.03783200284781" y1="517.1527777777777" x2="54.03783200284781" y2="533.8194444444445"/>
        <line fill="none" stroke="#ff0000" stroke-width="2" x1="24.133394254712936" y1="517.1527777777777" x2="24.133394254712936" y2="533.8194444444445"/>
        <line fill="none" stroke="#ff0000" stroke-width="2" x1="84.65438036022807" y1="517.1527777777777" x2="84.65438036022807" y2="533.8194444444445"/>
        <line fill="none" stroke="#ff0000" stroke-width="2" x1="88.90832264700839" y1="517.1527777777777" x2="88.90832264700839" y2="533.8194444444445"/>
        <text x="264.7037394906952" y="556.6666666666666" font-size="16.666666666666668" >NC_000001.11</text>
        <line stroke="#BDBDBD" stroke-width="16.666666666666668" x1="20" y1="548.3333333333333" x2="244.70373949069523" y2="548.3333333333333" stroke-linecap="round"/>
        <line fill="none" stroke="#ff0000" stroke-width="2" x1="114.78767515217835" y1="539.9999999999999" x2="114.78767515217835" y2="556.6666666666666"/>
        <line fill="none" stroke="#ff0000" stroke-width="2" x1="125.46408487034473" y1="539.9999999999999" x2="125.46408487034473" y2="556.6666666666666"/>
        <line fill="none" stroke="#ff0000" stroke-width="2" x1="126.12112801139656" y1="539.9999999999999" x2="126.12112801139656" y2="556.6666666666666"/>
        <line fill="none" stroke="#ff0000" stroke-width="2" x1="154.9176970414002" y1="539.9999999999999" x2="154.9176970414002" y2="556.6666666666666"/>
        <line fill="none" stroke="#ff0000" stroke-width="2" x1="177.03473318159757" y1="539.9999999999999" x2="177.03473318159757" y2="556.6666666666666"/>
        <line fill="none" stroke="#ff0000" stroke-width="2" x1="196.58693007740982" y1="539.9999999999999" x2="196.58693007740982" y2="556.6666666666666"/>
        <line fill="none" stroke="#ff0000" stroke-width="2" x1="197.73999923053913" y1="539.9999999999999" x2="197.73999923053913" y2="556.6666666666666"/>
        <line fill="none" stroke="#ff0000" stroke-width="2" x1="216.43726896665217" y1="539.9999999999999" x2="216.43726896665217" y2="556.6666666666666"/>
        <line fill="none" stroke="#ff0000" stroke-width="2" x1="62.41070556044745" y1="539.9999999999999" x2="62.41070556044745" y2="556.6666666666666"/>
        <line fill="none" stroke="#ff0000" stroke-width="2" x1="70.86173735739331" y1="539.9999999999999" x2="70.86173735739331" y2="556.6666666666666"/>
        <line fill="none" stroke="#ff0000" stroke-width="2" x1="77.9115331048346" y1="539.9999999999999" x2="77.9115331048346" y2="556.6666666666666"/>
        <line fill="none" stroke="#ff0000" stroke-width="2" x1="106.83341941346664" y1="539.9999999999999" x2="106.83341941346664" y2="556.6666666666666"/>
    </g>
</svg>
