<?xml version="1.0"?>
<svg height="300" version="1.1" width="416" xmlns="http://www.w3.org/2000/svg" xmlns:xlink="http://www.w3.org/1999/xlink">
  <desc>Ideogram SVG</desc>
  <style>
    .int_txt {
      display: inline;
      text-align: center;
      color: none;
      opacity: 0
    }
    .Integration:hover {
      fill: red;
      color: red;
      pointer-events: visibleFill;
    }
    .Integration:hover ~ .int_txt {
      fill: black;
      color: black;
      pointer-events: visibleFill;
      opacity: 1
    }
  </style>
  <defs>
    <linearGradient id="arm">
      <stop offset="0" stop-color="rgb(102,102,102)" stop-opacity="1"/>
      <stop offset="0.125" stop-color="rgb(195,195,195)" stop-opacity="1"/>
      <stop offset="0.625" stop-color="rgb(136,136,136)" stop-opacity="1"/>
      <stop offset="1" stop-color="rgb(102,102,102)" stop-opacity="1"/>
    </linearGradient>
    <linearGradient id="gneg">
      <stop offset="0" stop-color="rgb(191,191,191)" stop-opacity="1"/>
      <stop offset="0.125" stop-color="rgb(255,255,255)" stop-opacity="1"/>
      <stop offset="0.625" stop-color="rgb(255,255,255)" stop-opacity="1"/>
      <stop offset="1" stop-color="rgb(191,191,191)" stop-opacity="1"/>
    </linearGradient>
    <linearGradient id="gpos-100">
      <stop offset="0" stop-color="rgb(0,0,0)" stop-opacity="1"/>
      <stop offset="0.125" stop-color="rgb(127,127,127)" stop-opacity="1"/>
      <stop offset="0.625" stop-color="rgb(0,0,0)" stop-opacity="1"/>
      <stop offset="1" stop-color="rgb(0,0,0)" stop-opacity="1"/>
    </linearGradient>
    <linearGradient id="gpos-33">
      <stop offset="0" stop-color="rgb(127,127,127)" stop-opacity="1"/>
      <stop offset="0.125" stop-color="rgb(212,212,212)" stop-opacity="1"/>
      <stop offset="0.625" stop-color="rgb(170,170,170)" stop-opacity="1"/>
      <stop offset="1" stop-color="rgb(127,127,127)" stop-opacity="1"/>
    </linearGradient>
    <linearGradient id="gpos-66">
      <stop offset="0" stop-color="rgb(76,76,76)" stop-opacity="1"/>
      <stop offset="0.125" stop-color="rgb(178,178,178)" stop-opacity="1"/>
      <stop offset="0.625" stop-color="rgb(102,102,102)" stop-opacity="1"/>
      <stop offset="1" stop-color="rgb(76,76,76)" stop-opacity="1"/>
    </linearGradient>
    <linearGradient id="gpos-75">
      <stop offset="0" stop-color="rgb(51,51,51)" stop-opacity="1"/>
      <stop offset="0.125" stop-color="rgb(161,161,161)" stop-opacity="1"/>
      <stop offset="0.625" stop-color="rgb(68,68,68)" stop-opacity="1"/>
      <stop offset="1" stop-color="rgb(51,51,51)" stop-opacity="1"/>
    </linearGradient>
    <linearGradient id="acen">
      <stop offset="0" stop-color="rgb(191,146,146)" stop-opacity="1"/>
      <stop offset="0.125" stop-color="rgb(255,163,163)" stop-opacity="1"/>
      <stop offset="0.625" stop-color="rgb(255,192,192)" stop-opacity="1"/>
      <stop offset="1" stop-color="rgb(191,146,146)" stop-opacity="1"/>
    </linearGradient>"
  </defs>
  <g transform="translate(0,0),matrix(1 0 0 1 0 0)">
    <g transform="translate(0,0),matrix(1 0 0 1 0 0)">
      <g transform="translate(20,20),matrix(1 0 0 1 0 16)">
        <clipPath id="ideo_4">
          <path id="ideo_3" d="M0,5.05 C0,2.5 3,0 6,0 C9,0 12,2.5 12,5 L12,150.72434 C12,152.72434 9,155.72434 6 155.72434 C3,155.72434 0,152.72434 0,150.72434 Z" fill="rgb(240,240,255)" stroke="rgb(0,0,0)" stroke-width="1.000px"/>
        </clipPath>
        <g transform="translate(35,0),matrix(1 0 0 1 0 0)">
          <g fill="rgb(32,32,32)" fill-opacity="1" transform="translate(3,-16),matrix(1 0 0 1 0 0)">
            <text font-family="Courier" font-size="12.000000px" transform="matrix(1 0 0 1 0 8)" x="0" y="0">I</text>
          </g>
          <g transform="translate(0,0),matrix(1 0 0 1 0 0)">
            <g transform="translate(0,0),matrix(1 0 0 0.603015 0 0)">
              <use href="url(#ideo_3)"/>
              <g clip-path="url(#ideo_4)">
                <rect fill="url(#arm)" height="170.72434" stroke="none" width="12" x="0" y="0"/>
              </g>
              <g>
                <rect fill="lime" class="Integration" height="1.8712101166666668" stroke="none" width="12" x="0" y="130.2751790211986"/>
                <text class="int_txt" fill="black" text-decoration="underline" font-size="16px" transform="translate(0,0),matrix(1 0 0 1.6583 0 0)" x="0" y="150" font-weight="bold" >Int.1</text>
                <text class="int_txt" fill="black" font-size="16px" transform="translate(0,0),matrix(1 0 0 1.6583 0 0)" x="0" y="165" >Name: NC_003279.8_12773280</text>
                <text class="int_txt" fill="black" font-size="16px" transform="translate(0,0),matrix(1 0 0 1.6583 0 0)" x="0" y="180" >Chrom: 1</text>
                <text class="int_txt" fill="black" font-size="16px" transform="translate(0,0),matrix(1 0 0 1.6583 0 0)" x="0" y="195" >Contig: NC_003279.8</text>
                <text class="int_txt" fill="black" font-size="16px" transform="translate(0,0),matrix(1 0 0 1.6583 0 0)" x="0" y="210" >Position [bp]: 12773280</text>
                <text class="int_txt" fill="black" font-size="16px" transform="translate(0,0),matrix(1 0 0 1.6583 0 0)" x="0" y="225" >Features: gene (protein_coding)   B0019.2</text>
              </g>
            </g>
            <g transform="translate(0,0),matrix(1 0 0 0.603015 0 0)"/>
          </g>
        </g>
        <clipPath id="ideo_6">
          <path id="ideo_5" d="M0,5.05 C0,2.5 3,0 6,0 C9,0 12,2.5 12,5 L12,152.79421 C12,154.79421 9,157.79421 6 157.79421 C3,157.79421 0,154.79421 0,152.79421 Z" fill="rgb(240,240,255)" stroke="rgb(0,0,0)" stroke-width="1.000px"/>
        </clipPath>
        <g transform="translate(70,0),matrix(1 0 0 1 0 0)">
          <g fill="rgb(32,32,32)" fill-opacity="1" transform="translate(3,-16),matrix(1 0 0 1 0 0)">
            <text font-family="Courier" font-size="12.000000px" transform="matrix(1 0 0 1 0 8)" x="0" y="0">II</text>
          </g>
          <g transform="translate(0,0),matrix(1 0 0 1 0 0)">
            <g transform="translate(0,0),matrix(1 0 0 0.603015 0 0)">
              <use href="url(#ideo_5)"/>
              <g clip-path="url(#ideo_6)">
                <rect fill="url(#arm)" height="172.79421" stroke="none" width="12" x="0" y="0"/>
              </g>
            </g>
            <g transform="translate(0,0),matrix(1 0 0 0.603015 0 0)"/>
          </g>
        </g>
        <clipPath id="ideo_8">
          <path id="ideo_7" d="M0,5.05 C0,2.5 3,0 6,0 C9,0 12,2.5 12,5 L12,137.83801 C12,139.83801 9,142.83801 6 142.83801 C3,142.83801 0,139.83801 0,137.83801 Z" fill="rgb(240,240,255)" stroke="rgb(0,0,0)" stroke-width="1.000px"/>
        </clipPath>
        <g transform="translate(105,0),matrix(1 0 0 1 0 0)">
          <g fill="rgb(32,32,32)" fill-opacity="1" transform="translate(3,-16),matrix(1 0 0 1 0 0)">
            <text font-family="Courier" font-size="12.000000px" transform="matrix(1 0 0 1 0 8)" x="0" y="0">III</text>
          </g>
          <g transform="translate(0,0),matrix(1 0 0 1 0 0)">
            <g transform="translate(0,0),matrix(1 0 0 0.603015 0 0)">
              <use href="url(#ideo_7)"/>
              <g clip-path="url(#ideo_8)">
                <rect fill="url(#arm)" height="157.83801" stroke="none" width="12" x="0" y="0"/>
              </g>
            </g>
            <g transform="translate(0,0),matrix(1 0 0 0.603015 0 0)"/>
          </g>
        </g>
        <clipPath id="ideo_10">
          <path id="ideo_9" d="M0,5.05 C0,2.5 3,0 6,0 C9,0 12,2.5 12,5 L12,174.93829 C12,176.93829 9,179.93829 6 179.93829 C3,179.93829 0,176.93829 0,174.93829 Z" fill="rgb(240,240,255)" stroke="rgb(0,0,0)" stroke-width="1.000px"/>
        </clipPath>
        <g transform="translate(140,0),matrix(1 0 0 1 0 0)">
          <g fill="rgb(32,32,32)" fill-opacity="1" transform="translate(3,-16),matrix(1 0 0 1 0 0)">
            <text font-family="Courier" font-size="12.000000px" transform="matrix(1 0 0 1 0 8)" x="0" y="0">IV</text>
          </g>
          <g transform="translate(0,0),matrix(1 0 0 1 0 0)">
            <g transform="translate(0,0),matrix(1 0 0 0.603015 0 0)">
              <use href="url(#ideo_9)"/>
              <g clip-path="url(#ideo_10)">
                <rect fill="url(#arm)" height="194.93829" stroke="none" width="12" x="0" y="0"/>
              </g>
            </g>
            <g transform="translate(0,0),matrix(1 0 0 0.603015 0 0)"/>
          </g>
        </g>
        <clipPath id="ideo_12">
          <path id="ideo_11" d="M0,5.05 C0,2.5 3,0 6,0 C9,0 12,2.5 12,5 L12,209.2418 C12,211.2418 9,214.2418 6 214.2418 C3,214.2418 0,211.2418 0,209.2418 Z" fill="rgb(240,240,255)" stroke="rgb(0,0,0)" stroke-width="1.000px"/>
        </clipPath>
        <g transform="translate(175,0),matrix(1 0 0 1 0 0)">
          <g fill="rgb(32,32,32)" fill-opacity="1" transform="translate(3,-16),matrix(1 0 0 1 0 0)">
            <text font-family="Courier" font-size="12.000000px" transform="matrix(1 0 0 1 0 8)" x="0" y="0">V</text>
          </g>
          <g transform="translate(0,0),matrix(1 0 0 1 0 0)">
            <g transform="translate(0,0),matrix(1 0 0 0.603015 0 0)">
              <use href="url(#ideo_11)"/>
              <g clip-path="url(#ideo_12)">
                <rect fill="url(#arm)" height="229.2418" stroke="none" width="12" x="0" y="0"/>
              </g>
              <g>
                <rect fill="lime" class="Integration" height="1.8712101166666668" stroke="none" width="12" x="0" y="42.36522490018725"/>
                <text class="int_txt" fill="black" text-decoration="underline" font-size="16px" transform="translate(0,0),matrix(1 0 0 1.6583 0 0)" x="-140" y="150" font-weight="bold" >Int.2</text>
                <text class="int_txt" fill="black" font-size="16px" transform="translate(0,0),matrix(1 0 0 1.6583 0 0)" x="-140" y="165" >Name: NC_003283.11_4176640</text>
                <text class="int_txt" fill="black" font-size="16px" transform="translate(0,0),matrix(1 0 0 1.6583 0 0)" x="-140" y="180" >Chrom: 5</text>
                <text class="int_txt" fill="black" font-size="16px" transform="translate(0,0),matrix(1 0 0 1.6583 0 0)" x="-140" y="195" >Contig: NC_003283.11</text>
                <text class="int_txt" fill="black" font-size="16px" transform="translate(0,0),matrix(1 0 0 1.6583 0 0)" x="-140" y="210" >Position [bp]: 4176640</text>
                <text class="int_txt" fill="black" font-size="16px" transform="translate(0,0),matrix(1 0 0 1.6583 0 0)" x="-140" y="225" >Features: gene (protein_coding)   pid-5</text>
              </g>
            </g>
            <g transform="translate(0,0),matrix(1 0 0 0.603015 0 0)"/>
          </g>
        </g>
        <clipPath id="ideo_14">
          <path id="ideo_13" d="M0,5.05 C0,2.5 3,0 6,0 C9,0 12,2.5 12,5 L12,177.18942 C12,179.18942 9,182.18942 6 182.18942 C3,182.18942 0,179.18942 0,177.18942 Z" fill="rgb(240,240,255)" stroke="rgb(0,0,0)" stroke-width="1.000px"/>
        </clipPath>
        <g transform="translate(210,0),matrix(1 0 0 1 0 0)">
          <g fill="rgb(32,32,32)" fill-opacity="1" transform="translate(3,-16),matrix(1 0 0 1 0 0)">
            <text font-family="Courier" font-size="12.000000px" transform="matrix(1 0 0 1 0 8)" x="0" y="0">X</text>
          </g>
          <g transform="translate(0,0),matrix(1 0 0 1 0 0)">
            <g transform="translate(0,0),matrix(1 0 0 0.603015 0 0)">
              <use href="url(#ideo_13)"/>
              <g clip-path="url(#ideo_14)">
                <rect fill="url(#arm)" height="197.18942" stroke="none" width="12" x="0" y="0"/>
              </g>
            </g>
            <g transform="translate(0,0),matrix(1 0 0 0.603015 0 0)"/>
          </g>
        </g>
      </g>
    </g>
  </g>
</svg>
