<?xml version="1.0"?>
<svg height="260" version="1.1" width="360" xmlns="http://www.w3.org/2000/svg" xmlns:xlink="http://www.w3.org/1999/xlink">
  <desc>Ideogram SVG</desc>
  <style>
    .int_txt {
      display: inline;
      text-align: center;
      color: none;
      opacity: 1
    }
    .Integration:hover {
      fill: red;
      stroke-color: red;      color: red;
      pointer-events: visibleFill;
    }
    .Integration:hover ~ .int_txt {
      fill: black;
      color: black;
      pointer-events: visibleFill;
      opacity: 1
    }
  </style>
  <defs>
    <clipPath id="ideo_2">
      <path id="ideo_1" d="M0.000000,201.612518 C0.000000,100.806259 3.000000,0.000000 6.000000,0.000000 C9.000000,0.000000 12.000000,100.806259 12.000000,201.612518 L12.000000,7192.387695 C12.000000,7293.193848 9.000000,7394.000000 6.000000 7394.000000 C3.000000,7394.000000 0.000000,7293.193848 0.000000,7192.387695 Z M0.000000,7595.612305 C0.000000,7494.806152 3.000000,7394.000000 6.000000,7394.000000 C9.000000,7394.000000 12.000000,7494.806152 12.000000,7595.612305 L12.000000,14898.387695 C12.000000,14999.193359 9.000000,15100.000000 6.000000 15100.000000 C3.000000,15100.000000 0.000000,14999.193359 0.000000,14898.387695 Z" fill="rgb(240,240,255)" stroke="rgb(0,0,0)" stroke-width="1.000px"/>
    </clipPath>
    <linearGradient id="arm">
      <stop offset="0" stop-color="rgb(102,102,102)" stop-opacity="1"/>
      <stop offset="0.125" stop-color="rgb(195,195,195)" stop-opacity="1"/>
      <stop offset="0.625" stop-color="rgb(136,136,136)" stop-opacity="1"/>
      <stop offset="1" stop-color="rgb(102,102,102)" stop-opacity="1"/>
    </linearGradient>
    <linearGradient id="gneg">
      <stop offset="0" stop-color="rgb(191,191,191)" stop-opacity="1"/>
      <stop offset="0.125" stop-color="rgb(255,255,255)" stop-opacity="1"/>
      <stop offset="0.625" stop-color="rgb(255,255,255)" stop-opacity="1"/>
      <stop offset="1" stop-color="rgb(191,191,191)" stop-opacity="1"/>
    </linearGradient>
    <linearGradient id="gpos-100">
      <stop offset="0" stop-color="rgb(0,0,0)" stop-opacity="1"/>
      <stop offset="0.125" stop-color="rgb(127,127,127)" stop-opacity="1"/>
      <stop offset="0.625" stop-color="rgb(0,0,0)" stop-opacity="1"/>
      <stop offset="1" stop-color="rgb(0,0,0)" stop-opacity="1"/>
    </linearGradient>
    <linearGradient id="gpos-25">
      <stop offset="0" stop-color="rgb(153,153,153)" stop-opacity="1"/>
      <stop offset="0.125" stop-color="rgb(229,229,229)" stop-opacity="1"/>
      <stop offset="0.625" stop-color="rgb(204,204,204)" stop-opacity="1"/>
      <stop offset="1" stop-color="rgb(153,153,153)" stop-opacity="1"/>
    </linearGradient>
    <linearGradient id="gpos-75">
      <stop offset="0" stop-color="rgb(51,51,51)" stop-opacity="1"/>
      <stop offset="0.125" stop-color="rgb(161,161,161)" stop-opacity="1"/>
      <stop offset="0.625" stop-color="rgb(68,68,68)" stop-opacity="1"/>
      <stop offset="1" stop-color="rgb(51,51,51)" stop-opacity="1"/>
    </linearGradient>
    <linearGradient id="gpos-50">
      <stop offset="0" stop-color="rgb(102,102,102)" stop-opacity="1"/>
      <stop offset="0.125" stop-color="rgb(195,195,195)" stop-opacity="1"/>
      <stop offset="0.625" stop-color="rgb(136,136,136)" stop-opacity="1"/>
      <stop offset="1" stop-color="rgb(102,102,102)" stop-opacity="1"/>
    </linearGradient>
    <linearGradient id="acen">
      <stop offset="0" stop-color="rgb(191,146,146)" stop-opacity="1"/>
      <stop offset="0.125" stop-color="rgb(255,163,163)" stop-opacity="1"/>
      <stop offset="0.625" stop-color="rgb(255,192,192)" stop-opacity="1"/>
      <stop offset="1" stop-color="rgb(191,146,146)" stop-opacity="1"/>
    </linearGradient>
    <linearGradient id="gvar">
      <stop offset="0" stop-color="rgb(130,130,191)" stop-opacity="1"/>
      <stop offset="0.125" stop-color="rgb(144,144,255)" stop-opacity="1"/>
      <stop offset="0.625" stop-color="rgb(170,170,255)" stop-opacity="1"/>
      <stop offset="1" stop-color="rgb(130,130,191)" stop-opacity="1"/>
    </linearGradient>
    <clipPath id="ideo_4">
      <path id="ideo_3" d="M0.000000,201.612518 C0.000000,100.806259 3.000000,0.000000 6.000000,0.000000 C9.000000,0.000000 12.000000,100.806259 12.000000,201.612518 L12.000000,5463.387695 C12.000000,5564.193848 9.000000,5665.000000 6.000000 5665.000000 C3.000000,5665.000000 0.000000,5564.193848 0.000000,5463.387695 Z M0.000000,5866.612305 C0.000000,5765.806152 3.000000,5665.000000 6.000000,5665.000000 C9.000000,5665.000000 12.000000,5765.806152 12.000000,5866.612305 L12.000000,14198.387695 C12.000000,14299.193359 9.000000,14400.000000 6.000000 14400.000000 C3.000000,14400.000000 0.000000,14299.193359 0.000000,14198.387695 Z" fill="rgb(240,240,255)" stroke="rgb(0,0,0)" stroke-width="1.000px"/>
    </clipPath>
    <clipPath id="ideo_6">
      <path id="ideo_5" d="M0.000000,201.612518 C0.000000,100.806259 3.000000,0.000000 6.000000,0.000000 C9.000000,0.000000 12.000000,100.806259 12.000000,201.612518 L12.000000,5371.387695 C12.000000,5472.193848 9.000000,5573.000000 6.000000 5573.000000 C3.000000,5573.000000 0.000000,5472.193848 0.000000,5371.387695 Z M0.000000,5774.612305 C0.000000,5673.806152 3.000000,5573.000000 6.000000,5573.000000 C9.000000,5573.000000 12.000000,5673.806152 12.000000,5774.612305 L12.000000,11498.387695 C12.000000,11599.193359 9.000000,11700.000000 6.000000 11700.000000 C3.000000,11700.000000 0.000000,11599.193359 0.000000,11498.387695 Z" fill="rgb(240,240,255)" stroke="rgb(0,0,0)" stroke-width="1.000px"/>
    </clipPath>
    <clipPath id="ideo_8">
      <path id="ideo_7" d="M0.000000,201.612518 C0.000000,100.806259 3.000000,0.000000 6.000000,0.000000 C9.000000,0.000000 12.000000,100.806259 12.000000,201.612518 L12.000000,2893.387451 C12.000000,2994.193848 9.000000,3095.000000 6.000000 3095.000000 C3.000000,3095.000000 0.000000,2994.193848 0.000000,2893.387451 Z M0.000000,3296.612549 C0.000000,3195.806152 3.000000,3095.000000 6.000000,3095.000000 C9.000000,3095.000000 12.000000,3195.806152 12.000000,3296.612549 L12.000000,10968.387695 C12.000000,11069.193359 9.000000,11170.000000 6.000000 11170.000000 C3.000000,11170.000000 0.000000,11069.193359 0.000000,10968.387695 Z" fill="rgb(240,240,255)" stroke="rgb(0,0,0)" stroke-width="1.000px"/>
    </clipPath>
    <clipPath id="ideo_10">
      <path id="ideo_9" d="M0.000000,201.612518 C0.000000,100.806259 3.000000,0.000000 6.000000,0.000000 C9.000000,0.000000 12.000000,100.806259 12.000000,201.612518 L12.000000,2643.387451 C12.000000,2744.193848 9.000000,2845.000000 6.000000 2845.000000 C3.000000,2845.000000 0.000000,2744.193848 0.000000,2643.387451 Z M0.000000,3046.612549 C0.000000,2945.806152 3.000000,2845.000000 6.000000,2845.000000 C9.000000,2845.000000 12.000000,2945.806152 12.000000,3046.612549 L12.000000,10398.387695 C12.000000,10499.193359 9.000000,10600.000000 6.000000 10600.000000 C3.000000,10600.000000 0.000000,10499.193359 0.000000,10398.387695 Z" fill="rgb(240,240,255)" stroke="rgb(0,0,0)" stroke-width="1.000px"/>
    </clipPath>
    <clipPath id="ideo_12">
      <path id="ideo_11" d="M0.000000,201.612518 C0.000000,100.806259 3.000000,0.000000 6.000000,0.000000 C9.000000,0.000000 12.000000,100.806259 12.000000,201.612518 L12.000000,3654.387451 C12.000000,3755.193848 9.000000,3856.000000 6.000000 3856.000000 C3.000000,3856.000000 0.000000,3755.193848 0.000000,3654.387451 Z M0.000000,4057.612549 C0.000000,3956.806152 3.000000,3856.000000 6.000000,3856.000000 C9.000000,3856.000000 12.000000,3956.806152 12.000000,4057.612549 L12.000000,9898.387695 C12.000000,9999.193359 9.000000,10100.000000 6.000000 10100.000000 C3.000000,10100.000000 0.000000,9999.193359 0.000000,9898.387695 Z" fill="rgb(240,240,255)" stroke="rgb(0,0,0)" stroke-width="1.000px"/>
    </clipPath>
    <clipPath id="ideo_14">
      <path id="ideo_13" d="M0.000000,201.612518 C0.000000,100.806259 3.000000,0.000000 6.000000,0.000000 C9.000000,0.000000 12.000000,100.806259 12.000000,201.612518 L12.000000,3189.387451 C12.000000,3290.193848 9.000000,3391.000000 6.000000 3391.000000 C3.000000,3391.000000 0.000000,3290.193848 0.000000,3189.387451 Z M0.000000,3592.612549 C0.000000,3491.806152 3.000000,3391.000000 6.000000,3391.000000 C9.000000,3391.000000 12.000000,3491.806152 12.000000,3592.612549 L12.000000,9148.387695 C12.000000,9249.193359 9.000000,9350.000000 6.000000 9350.000000 C3.000000,9350.000000 0.000000,9249.193359 0.000000,9148.387695 Z" fill="rgb(240,240,255)" stroke="rgb(0,0,0)" stroke-width="1.000px"/>
    </clipPath>
    <clipPath id="ideo_16">
      <path id="ideo_15" d="M0.000000,201.612518 C0.000000,100.806259 3.000000,0.000000 6.000000,0.000000 C9.000000,0.000000 12.000000,100.806259 12.000000,201.612518 L12.000000,2541.387451 C12.000000,2642.193848 9.000000,2743.000000 6.000000 2743.000000 C3.000000,2743.000000 0.000000,2642.193848 0.000000,2541.387451 Z M0.000000,2944.612549 C0.000000,2843.806152 3.000000,2743.000000 6.000000,2743.000000 C9.000000,2743.000000 12.000000,2843.806152 12.000000,2944.612549 L12.000000,8048.387695 C12.000000,8149.193848 9.000000,8250.000000 6.000000 8250.000000 C3.000000,8250.000000 0.000000,8149.193848 0.000000,8048.387695 Z" fill="rgb(240,240,255)" stroke="rgb(0,0,0)" stroke-width="1.000px"/>
    </clipPath>
    <clipPath id="ideo_18">
      <path id="ideo_17" d="M0.000000,201.612518 C0.000000,100.806259 3.000000,0.000000 6.000000,0.000000 C9.000000,0.000000 12.000000,100.806259 12.000000,201.612518 L12.000000,2432.387451 C12.000000,2533.193848 9.000000,2634.000000 6.000000 2634.000000 C3.000000,2634.000000 0.000000,2533.193848 0.000000,2432.387451 Z M0.000000,2835.612549 C0.000000,2734.806152 3.000000,2634.000000 6.000000,2634.000000 C9.000000,2634.000000 12.000000,2734.806152 12.000000,2835.612549 L12.000000,7748.387695 C12.000000,7849.193848 9.000000,7950.000000 6.000000 7950.000000 C3.000000,7950.000000 0.000000,7849.193848 0.000000,7748.387695 Z" fill="rgb(240,240,255)" stroke="rgb(0,0,0)" stroke-width="1.000px"/>
    </clipPath>
    <clipPath id="ideo_20">
      <path id="ideo_19" d="M0.000000,201.612518 C0.000000,100.806259 3.000000,0.000000 6.000000,0.000000 C9.000000,0.000000 12.000000,100.806259 12.000000,201.612518 L12.000000,2418.387451 C12.000000,2519.193848 9.000000,2620.000000 6.000000 2620.000000 C3.000000,2620.000000 0.000000,2519.193848 0.000000,2418.387451 Z M0.000000,2821.612549 C0.000000,2720.806152 3.000000,2620.000000 6.000000,2620.000000 C9.000000,2620.000000 12.000000,2720.806152 12.000000,2821.612549 L12.000000,7848.387695 C12.000000,7949.193848 9.000000,8050.000000 6.000000 8050.000000 C3.000000,8050.000000 0.000000,7949.193848 0.000000,7848.387695 Z" fill="rgb(240,240,255)" stroke="rgb(0,0,0)" stroke-width="1.000px"/>
    </clipPath>
    <clipPath id="ideo_22">
      <path id="ideo_21" d="M0.000000,201.612518 C0.000000,100.806259 3.000000,0.000000 6.000000,0.000000 C9.000000,0.000000 12.000000,100.806259 12.000000,201.612518 L12.000000,3146.387451 C12.000000,3247.193848 9.000000,3348.000000 6.000000 3348.000000 C3.000000,3348.000000 0.000000,3247.193848 0.000000,3146.387451 Z M0.000000,3549.612549 C0.000000,3448.806152 3.000000,3348.000000 6.000000,3348.000000 C9.000000,3348.000000 12.000000,3448.806152 12.000000,3549.612549 L12.000000,7778.387695 C12.000000,7879.193848 9.000000,7980.000000 6.000000 7980.000000 C3.000000,7980.000000 0.000000,7879.193848 0.000000,7778.387695 Z" fill="rgb(240,240,255)" stroke="rgb(0,0,0)" stroke-width="1.000px"/>
    </clipPath>
    <clipPath id="ideo_24">
      <path id="ideo_23" d="M0.000000,201.612518 C0.000000,100.806259 3.000000,0.000000 6.000000,0.000000 C9.000000,0.000000 12.000000,100.806259 12.000000,201.612518 L12.000000,1903.387451 C12.000000,2004.193726 9.000000,2105.000000 6.000000 2105.000000 C3.000000,2105.000000 0.000000,2004.193726 0.000000,1903.387451 Z M0.000000,2306.612549 C0.000000,2205.806152 3.000000,2105.000000 6.000000,2105.000000 C9.000000,2105.000000 12.000000,2205.806152 12.000000,2306.612549 L12.000000,7298.387695 C12.000000,7399.193848 9.000000,7500.000000 6.000000 7500.000000 C3.000000,7500.000000 0.000000,7399.193848 0.000000,7298.387695 Z" fill="rgb(240,240,255)" stroke="rgb(0,0,0)" stroke-width="1.000px"/>
    </clipPath>
    <clipPath id="ideo_26">
      <path id="ideo_25" d="M0.000000,201.612518 C0.000000,100.806259 3.000000,0.000000 6.000000,0.000000 C9.000000,0.000000 12.000000,100.806259 12.000000,201.612518 L12.000000,1002.387451 C12.000000,1103.193726 9.000000,1204.000000 6.000000 1204.000000 C3.000000,1204.000000 0.000000,1103.193726 0.000000,1002.387451 Z M0.000000,1405.612549 C0.000000,1304.806274 3.000000,1204.000000 6.000000,1204.000000 C9.000000,1204.000000 12.000000,1304.806274 12.000000,1405.612549 L12.000000,6308.387695 C12.000000,6409.193848 9.000000,6510.000000 6.000000 6510.000000 C3.000000,6510.000000 0.000000,6409.193848 0.000000,6308.387695 Z" fill="rgb(240,240,255)" stroke="rgb(0,0,0)" stroke-width="1.000px"/>
    </clipPath>
    <linearGradient id="stalk">
      <stop offset="0" stop-color="rgb(100,100,191)" stop-opacity="1"/>
      <stop offset="0.125" stop-color="rgb(108,108,255)" stop-opacity="1"/>
      <stop offset="0.625" stop-color="rgb(128,128,255)" stop-opacity="1"/>
      <stop offset="1" stop-color="rgb(100,100,191)" stop-opacity="1"/>
    </linearGradient>
    <clipPath id="ideo_28">
      <path id="ideo_27" d="M0.000000,201.612518 C0.000000,100.806259 3.000000,0.000000 6.000000,0.000000 C9.000000,0.000000 12.000000,100.806259 12.000000,201.612518 L12.000000,1020.387451 C12.000000,1121.193726 9.000000,1222.000000 6.000000 1222.000000 C3.000000,1222.000000 0.000000,1121.193726 0.000000,1020.387451 Z M0.000000,1423.612549 C0.000000,1322.806274 3.000000,1222.000000 6.000000,1222.000000 C9.000000,1222.000000 12.000000,1322.806274 12.000000,1423.612549 L12.000000,6098.387695 C12.000000,6199.193848 9.000000,6300.000000 6.000000 6300.000000 C3.000000,6300.000000 0.000000,6199.193848 0.000000,6098.387695 Z" fill="rgb(240,240,255)" stroke="rgb(0,0,0)" stroke-width="1.000px"/>
    </clipPath>
    <clipPath id="ideo_30">
      <path id="ideo_29" d="M0.000000,201.612518 C0.000000,100.806259 3.000000,0.000000 6.000000,0.000000 C9.000000,0.000000 12.000000,100.806259 12.000000,201.612518 L12.000000,1073.387451 C12.000000,1174.193726 9.000000,1275.000000 6.000000 1275.000000 C3.000000,1275.000000 0.000000,1174.193726 0.000000,1073.387451 Z M0.000000,1476.612549 C0.000000,1375.806274 3.000000,1275.000000 6.000000,1275.000000 C9.000000,1275.000000 12.000000,1375.806274 12.000000,1476.612549 L12.000000,5868.387695 C12.000000,5969.193848 9.000000,6070.000000 6.000000 6070.000000 C3.000000,6070.000000 0.000000,5969.193848 0.000000,5868.387695 Z" fill="rgb(240,240,255)" stroke="rgb(0,0,0)" stroke-width="1.000px"/>
    </clipPath>
    <clipPath id="ideo_32">
      <path id="ideo_31" d="M0.000000,201.612518 C0.000000,100.806259 3.000000,0.000000 6.000000,0.000000 C9.000000,0.000000 12.000000,100.806259 12.000000,201.612518 L12.000000,1985.387451 C12.000000,2086.193848 9.000000,2187.000000 6.000000 2187.000000 C3.000000,2187.000000 0.000000,2086.193848 0.000000,1985.387451 Z M0.000000,2388.612549 C0.000000,2287.806152 3.000000,2187.000000 6.000000,2187.000000 C9.000000,2187.000000 12.000000,2287.806152 12.000000,2388.612549 L12.000000,4918.387695 C12.000000,5019.193848 9.000000,5120.000000 6.000000 5120.000000 C3.000000,5120.000000 0.000000,5019.193848 0.000000,4918.387695 Z" fill="rgb(240,240,255)" stroke="rgb(0,0,0)" stroke-width="1.000px"/>
    </clipPath>
    <clipPath id="ideo_34">
      <path id="ideo_33" d="M0.000000,201.612518 C0.000000,100.806259 3.000000,0.000000 6.000000,0.000000 C9.000000,0.000000 12.000000,100.806259 12.000000,201.612518 L12.000000,1416.387451 C12.000000,1517.193726 9.000000,1618.000000 6.000000 1618.000000 C3.000000,1618.000000 0.000000,1517.193726 0.000000,1416.387451 Z M0.000000,1819.612549 C0.000000,1718.806274 3.000000,1618.000000 6.000000,1618.000000 C9.000000,1618.000000 12.000000,1718.806274 12.000000,1819.612549 L12.000000,4748.387695 C12.000000,4849.193848 9.000000,4950.000000 6.000000 4950.000000 C3.000000,4950.000000 0.000000,4849.193848 0.000000,4748.387695 Z" fill="rgb(240,240,255)" stroke="rgb(0,0,0)" stroke-width="1.000px"/>
    </clipPath>
    <clipPath id="ideo_36">
      <path id="ideo_35" d="M0.000000,201.612518 C0.000000,100.806259 3.000000,0.000000 6.000000,0.000000 C9.000000,0.000000 12.000000,100.806259 12.000000,201.612518 L12.000000,1099.387451 C12.000000,1200.193726 9.000000,1301.000000 6.000000 1301.000000 C3.000000,1301.000000 0.000000,1200.193726 0.000000,1099.387451 Z M0.000000,1502.612549 C0.000000,1401.806274 3.000000,1301.000000 6.000000,1301.000000 C9.000000,1301.000000 12.000000,1401.806274 12.000000,1502.612549 L12.000000,4448.387695 C12.000000,4549.193848 9.000000,4650.000000 6.000000 4650.000000 C3.000000,4650.000000 0.000000,4549.193848 0.000000,4448.387695 Z" fill="rgb(240,240,255)" stroke="rgb(0,0,0)" stroke-width="1.000px"/>
    </clipPath>
    <clipPath id="ideo_38">
      <path id="ideo_37" d="M0.000000,201.612518 C0.000000,100.806259 3.000000,0.000000 6.000000,0.000000 C9.000000,0.000000 12.000000,100.806259 12.000000,201.612518 L12.000000,1678.387451 C12.000000,1779.193726 9.000000,1880.000000 6.000000 1880.000000 C3.000000,1880.000000 0.000000,1779.193726 0.000000,1678.387451 Z M0.000000,2081.612549 C0.000000,1980.806274 3.000000,1880.000000 6.000000,1880.000000 C9.000000,1880.000000 12.000000,1980.806274 12.000000,2081.612549 L12.000000,3918.387451 C12.000000,4019.193848 9.000000,4120.000000 6.000000 4120.000000 C3.000000,4120.000000 0.000000,4019.193848 0.000000,3918.387451 Z" fill="rgb(240,240,255)" stroke="rgb(0,0,0)" stroke-width="1.000px"/>
    </clipPath>
    <clipPath id="ideo_40">
      <path id="ideo_39" d="M0.000000,201.612518 C0.000000,100.806259 3.000000,0.000000 6.000000,0.000000 C9.000000,0.000000 12.000000,100.806259 12.000000,201.612518 L12.000000,1527.387451 C12.000000,1628.193726 9.000000,1729.000000 6.000000 1729.000000 C3.000000,1729.000000 0.000000,1628.193726 0.000000,1527.387451 Z M0.000000,1930.612549 C0.000000,1829.806274 3.000000,1729.000000 6.000000,1729.000000 C9.000000,1729.000000 12.000000,1829.806274 12.000000,1930.612549 L12.000000,3568.387451 C12.000000,3669.193848 9.000000,3770.000000 6.000000 3770.000000 C3.000000,3770.000000 0.000000,3669.193848 0.000000,3568.387451 Z" fill="rgb(240,240,255)" stroke="rgb(0,0,0)" stroke-width="1.000px"/>
    </clipPath>
    <clipPath id="ideo_42">
      <path id="ideo_41" d="M0.000000,201.612518 C0.000000,100.806259 3.000000,0.000000 6.000000,0.000000 C9.000000,0.000000 12.000000,100.806259 12.000000,201.612518 L12.000000,1001.387451 C12.000000,1102.193726 9.000000,1203.000000 6.000000 1203.000000 C3.000000,1203.000000 0.000000,1102.193726 0.000000,1001.387451 Z M0.000000,1404.612549 C0.000000,1303.806274 3.000000,1203.000000 6.000000,1203.000000 C9.000000,1203.000000 12.000000,1303.806274 12.000000,1404.612549 L12.000000,2998.387451 C12.000000,3099.193848 9.000000,3200.000000 6.000000 3200.000000 C3.000000,3200.000000 0.000000,3099.193848 0.000000,2998.387451 Z" fill="rgb(240,240,255)" stroke="rgb(0,0,0)" stroke-width="1.000px"/>
    </clipPath>
    <clipPath id="ideo_44">
      <path id="ideo_43" d="M0.000000,201.612518 C0.000000,100.806259 3.000000,0.000000 6.000000,0.000000 C9.000000,0.000000 12.000000,100.806259 12.000000,201.612518 L12.000000,1030.387451 C12.000000,1131.193726 9.000000,1232.000000 6.000000 1232.000000 C3.000000,1232.000000 0.000000,1131.193726 0.000000,1030.387451 Z M0.000000,1433.612549 C0.000000,1332.806274 3.000000,1232.000000 6.000000,1232.000000 C9.000000,1232.000000 12.000000,1332.806274 12.000000,1433.612549 L12.000000,3198.387451 C12.000000,3299.193848 9.000000,3400.000000 6.000000 3400.000000 C3.000000,3400.000000 0.000000,3299.193848 0.000000,3198.387451 Z" fill="rgb(240,240,255)" stroke="rgb(0,0,0)" stroke-width="1.000px"/>
    </clipPath>
    <clipPath id="ideo_46">
      <path id="ideo_45" d="M0.000000,201.612518 C0.000000,100.806259 3.000000,0.000000 6.000000,0.000000 C9.000000,0.000000 12.000000,100.806259 12.000000,201.612518 L12.000000,3039.387451 C12.000000,3140.193848 9.000000,3241.000000 6.000000 3241.000000 C3.000000,3241.000000 0.000000,3140.193848 0.000000,3039.387451 Z M0.000000,3442.612549 C0.000000,3341.806152 3.000000,3241.000000 6.000000,3241.000000 C9.000000,3241.000000 12.000000,3341.806152 12.000000,3442.612549 L12.000000,8408.387695 C12.000000,8509.193359 9.000000,8610.000000 6.000000 8610.000000 C3.000000,8610.000000 0.000000,8509.193359 0.000000,8408.387695 Z" fill="rgb(240,240,255)" stroke="rgb(0,0,0)" stroke-width="1.000px"/>
    </clipPath>
    <clipPath id="ideo_48">
      <path id="ideo_47" d="M0.000000,201.612518 C0.000000,100.806259 3.000000,0.000000 6.000000,0.000000 C9.000000,0.000000 12.000000,100.806259 12.000000,201.612518 L12.000000,681.387451 C12.000000,782.193726 9.000000,883.000000 6.000000 883.000000 C3.000000,883.000000 0.000000,782.193726 0.000000,681.387451 Z M0.000000,1084.612549 C0.000000,983.806274 3.000000,883.000000 6.000000,883.000000 C9.000000,883.000000 12.000000,983.806274 12.000000,1084.612549 L12.000000,3448.387451 C12.000000,3549.193848 9.000000,3650.000000 6.000000 3650.000000 C3.000000,3650.000000 0.000000,3549.193848 0.000000,3448.387451 Z" fill="rgb(240,240,255)" stroke="rgb(0,0,0)" stroke-width="1.000px"/>
    </clipPath>
  </defs>
  <g transform="translate(0,0),matrix(1 0 0 1 0 0)">
    <g transform="translate(0,0),matrix(1 0 0 1 0 0)">
      <g transform="translate(19,0),matrix(1 0 0 1 0 0)">
      <g transform="translate(1,0),matrix(1 0 0 1 0 0)">
        <g fill="rgb(32,32,32)" fill-opacity="1" transform="translate(3,229.688),matrix(1 0 0 1 0 0)">
          <text font-family="Courier" font-size="12.000000px" transform="matrix(1 0 0 1 0 8)" x="0" y="0">1</text>
        </g>
          <g transform="translate(0,0),matrix(1 0 0 1 0 0)">
            <g transform="translate(0,0),matrix(1 0 0 0.01488 0 0)">
              <use xlink:href="url(#ideo_1)"/>
              <g clip-path="url(#ideo_2)">
                <rect fill="url(#arm)" height="7394" stroke="none" width="12" x="0" y="0"/>
                <rect fill="url(#gneg)" height="451" stroke="none" width="12" x="0" y="0"/>
                <rect fill="url(#gpos-100)" height="231" stroke="none" width="12" x="0" y="451"/>
                <rect fill="url(#gneg)" height="577" stroke="none" width="12" x="0" y="682"/>
                <rect fill="url(#gpos-100)" height="324" stroke="none" width="12" x="0" y="1259"/>
                <rect fill="url(#gneg)" height="196" stroke="none" width="12" x="0" y="1583"/>
                <rect fill="url(#gpos-25)" height="220" stroke="none" width="12" x="0" y="1779"/>
                <rect fill="url(#gneg)" height="185" stroke="none" width="12" x="0" y="1999"/>
                <rect fill="url(#gpos-75)" height="335" stroke="none" width="12" x="0" y="2184"/>
                <rect fill="url(#gneg)" height="204" stroke="none" width="12" x="0" y="2519"/>
                <rect fill="url(#gpos-50)" height="102" stroke="none" width="12" x="0" y="2723"/>
                <rect fill="url(#gneg)" height="225" stroke="none" width="12" x="0" y="2825"/>
                <rect fill="url(#gpos-50)" height="337" stroke="none" width="12" x="0" y="3050"/>
                <rect fill="url(#gneg)" height="318" stroke="none" width="12" x="0" y="3387"/>
                <rect fill="url(#gpos-100)" height="893" stroke="none" width="12" x="0" y="3705"/>
                <rect fill="url(#gneg)" height="335" stroke="none" width="12" x="0" y="4598"/>
                <rect fill="url(#gpos-75)" height="215" stroke="none" width="12" x="0" y="4933"/>
                <rect fill="url(#gneg)" height="282" stroke="none" width="12" x="0" y="5148"/>
                <rect fill="url(#gpos-100)" height="844" stroke="none" width="12" x="0" y="5430"/>
                <rect fill="url(#gneg)" height="286" stroke="none" width="12" x="0" y="6274"/>
                <rect fill="url(#gpos-50)" height="267" stroke="none" width="12" x="0" y="6560"/>
                <rect fill="url(#gneg)" height="267" stroke="none" width="12" x="0" y="6827"/>
                <rect fill="url(#gpos-50)" height="185" stroke="none" width="12" x="0" y="7094"/>
                <rect fill="url(#acen)" height="115" stroke="none" width="12" x="0" y="7279"/>
                <rect fill="url(#arm)" height="7706" stroke="none" width="12" x="0" y="7394"/>
                <rect fill="url(#acen)" height="160" stroke="none" width="12" x="0" y="7394"/>
                <rect fill="url(#gvar)" height="1118" stroke="none" width="12" x="0" y="7554"/>
                <rect fill="url(#gneg)" height="243" stroke="none" width="12" x="0" y="8672"/>
                <rect fill="url(#gpos-50)" height="179" stroke="none" width="12" x="0" y="8915"/>
                <rect fill="url(#gneg)" height="256" stroke="none" width="12" x="0" y="9094"/>
                <rect fill="url(#gpos-50)" height="335" stroke="none" width="12" x="0" y="9350"/>
                <rect fill="url(#gneg)" height="475" stroke="none" width="12" x="0" y="9685"/>
                <rect fill="url(#gpos-100)" height="405" stroke="none" width="12" x="0" y="10160"/>
                <rect fill="url(#gneg)" height="440" stroke="none" width="12" x="0" y="10565"/>
                <rect fill="url(#gpos-100)" height="1202" stroke="none" width="12" x="0" y="11005"/>
                <rect fill="url(#gneg)" height="550" stroke="none" width="12" x="0" y="12207"/>
                <rect fill="url(#gpos-25)" height="231" stroke="none" width="12" x="0" y="12757"/>
                <rect fill="url(#gneg)" height="284" stroke="none" width="12" x="0" y="12988"/>
                <rect fill="url(#gpos-100)" height="648" stroke="none" width="12" x="0" y="13272"/>
                <rect fill="url(#gneg)" height="292" stroke="none" width="12" x="0" y="13920"/>
                <rect fill="url(#gpos-50)" height="84" stroke="none" width="12" x="0" y="14212"/>
                <rect fill="url(#gneg)" height="110" stroke="none" width="12" x="0" y="14296"/>
                <rect fill="url(#gpos-75)" height="370" stroke="none" width="12" x="0" y="14406"/>
                <rect fill="url(#gneg)" height="324" stroke="none" width="12" x="0" y="14776"/>
              </g>
              <g>
                <line stroke="black" stroke-width="22.223333333333333" class="Integration" x1="6" x2="24" y1="2849.9883087972717" y2="2849.9883087972717"/>
                <text class="int_txt" fill="black" font-size="8.0" transform="translate(0,0),matrix(1 0 0 66.67 0 0)" x="32" y="45.807684247746685" >46988271, gene (protein_coding)  cytochrome P450 family 4 subfamily X member 1 CYP4X1</text>
              </g>
              <g>
                <line stroke="black" stroke-width="22.223333333333333" class="Integration" x1="6" x2="24" y1="3417.88814670545" y2="3417.88814670545"/>
                <text class="int_txt" fill="black" font-size="8.0" transform="translate(0,0),matrix(1 0 0 66.67 0 0)" x="32" y="54.32575591278611" >56351338, no feature reported</text>
              </g>
              <g>
                <line stroke="black" stroke-width="6.222740602394416" class="Integration" x1="6" x2="24" y1="3891.631374747183" y2="3951.24814670545"/>
                <text class="int_txt" fill="black" font-size="8.0" transform="translate(0,0),matrix(1 0 0 66.67 0 0)" x="32" y="62.32575591278611" >64162028, gene (protein_coding)  receptor tyrosine kinase like orphan receptor 1 ROR1</text>
              </g>
              <g>
                <line stroke="black" stroke-width="22.223333333333333" class="Integration" x1="6" x2="24" y1="5835.171718526706" y2="5835.171718526706"/>
                <text class="int_txt" fill="black" font-size="8.0" transform="translate(0,0),matrix(1 0 0 66.67 0 0)" x="32" y="90.58319661806969" >96205528, no feature reported</text>
              </g>
              <g>
                <line stroke="black" stroke-width="22.223333333333333" class="Integration" x1="6" x2="24" y1="6369.69338071544" y2="6369.69338071544"/>
                <text class="int_txt" fill="black" font-size="8.0" transform="translate(0,0),matrix(1 0 0 66.67 0 0)" x="32" y="98.60062067969761" >105018283, gene (lncRNA)   LOC105378880</text>
              </g>
              <g>
                <line stroke="black" stroke-width="22.223333333333333" class="Integration" x1="6" x2="24" y1="7087.1458989718285" y2="7087.1458989718285"/>
                <text class="int_txt" fill="black" font-size="8.0" transform="translate(0,0),matrix(1 0 0 66.67 0 0)" x="32" y="109.36187039105788" >116847052, no feature reported</text>
              </g>
              <g>
                <line stroke="black" stroke-width="0.7804822366202003" class="Integration" x1="6" x2="24" y1="7131.2971721613185" y2="7620.505898971828"/>
                <text class="int_txt" fill="black" font-size="8.0" transform="translate(0,0),matrix(1 0 0 66.67 0 0)" x="32" y="117.36187039105786" >117574982, no feature reported</text>
              </g>
              <g>
                <line stroke="black" stroke-width="22.223333333333333" class="Integration" x1="6" x2="24" y1="9066.42546501572" y2="9066.42546501572"/>
                <text class="int_txt" fill="black" font-size="8.0" transform="translate(0,0),matrix(1 0 0 66.67 0 0)" x="32" y="139.04957949626098" >149479791, gene (protein_coding)  NBPF member 19 NBPF19</text>
              </g>
              <g>
                <line stroke="black" stroke-width="22.223333333333333" class="Integration" x1="6" x2="24" y1="10552.675303150041" y2="10552.675303150041"/>
                <text class="int_txt" fill="black" font-size="8.0" transform="translate(0,0),matrix(1 0 0 66.67 0 0)" x="32" y="161.34221243662878" >173983860, gene (protein_coding)  ring finger and CCCH-type domains 1 RC3H1</text>
              </g>
              <g>
                <line stroke="black" stroke-width="22.223333333333333" class="Integration" x1="6" x2="24" y1="11866.578326708117" y2="11866.578326708117"/>
                <text class="int_txt" fill="black" font-size="8.0" transform="translate(0,0),matrix(1 0 0 66.67 0 0)" x="32" y="181.04977241200115" >195646416, gene (lncRNA)   LOC105371671</text>
              </g>
              <g>
                <line stroke="black" stroke-width="0.8374822010042668" class="Integration" x1="6" x2="24" y1="11944.056826941382" y2="12399.938326708118"/>
                <text class="int_txt" fill="black" font-size="8.0" transform="translate(0,0),matrix(1 0 0 66.67 0 0)" x="32" y="189.04977241200115" >196923818, gene (lncRNA)   LOC105371675</text>
              </g>
              <g>
                <line stroke="black" stroke-width="22.223333333333333" class="Integration" x1="6" x2="24" y1="13200.506363318475" y2="13200.506363318475"/>
                <text class="int_txt" fill="black" font-size="8.0" transform="translate(0,0),matrix(1 0 0 66.67 0 0)" x="32" y="201.05769256514884" >217639128, gene (protein_coding)  spermatogenesis associated 17 SPATA17</text>
              </g>
            </g>
          </g>
        </g>
      </g>
    </g>
  </g>
</svg>