<?xml version="1.0" encoding="utf-8"?>
<!-- Generator: Adobe Illustrator 15.0.0, SVG Export Plug-In . SVG Version: 6.00 Build 0)  -->
<!DOCTYPE svg PUBLIC "-//W3C//DTD SVG 1.0//EN" "http://www.w3.org/TR/2001/REC-SVG-20010904/DTD/svg10.dtd">
<svg version="1.0" id="Layer_1" xmlns="http://www.w3.org/2000/svg" xmlns:xlink="http://www.w3.org/1999/xlink" x="0px" y="0px"
	 width="160.093px" height="81.226px" viewBox="220.088 384.262 160.093 81.226"
	 enable-background="new 220.088 384.262 160.093 81.226" xml:space="preserve">
<g>
	<path fill="#5BC9E1" d="M220.088,435.8v-51.538h10.406V435.8H220.088z"/>
	<path fill="#5BC9E1" d="M274.299,435.8h-9.879v-19.053c0-4.031-0.211-6.639-0.633-7.822c-0.422-1.183-1.107-2.104-2.057-2.76
		c-0.949-0.656-2.092-0.984-3.428-0.984c-1.711,0-3.247,0.469-4.605,1.406c-1.359,0.938-2.291,2.18-2.795,3.727
		c-0.504,1.547-0.756,4.407-0.756,8.578v16.91h-9.879v-37.335h9.176v5.484c3.257-4.219,7.359-6.328,12.305-6.328
		c2.18,0,4.171,0.393,5.977,1.178c1.805,0.786,3.169,1.788,4.096,3.006c0.926,1.219,1.57,2.602,1.934,4.148
		c0.363,1.547,0.545,3.762,0.545,6.645L274.299,435.8L274.299,435.8z"/>
	<path fill="#5BC9E1" d="M301.439,398.465v7.875h-6.75v15.047c0,3.046,0.064,4.821,0.193,5.325c0.128,0.506,0.422,0.92,0.879,1.248
		c0.457,0.33,1.014,0.492,1.67,0.492c0.914,0,2.238-0.316,3.973-0.949l0.844,7.664c-2.297,0.984-4.898,1.477-7.805,1.477
		c-1.781,0-3.387-0.299-4.816-0.895c-1.43-0.598-2.479-1.371-3.146-2.32s-1.131-2.232-1.389-3.85
		c-0.211-1.148-0.316-3.469-0.316-6.961V406.34h-4.535v-7.875h4.535v-7.418l9.914-5.766v13.184H301.439z"/>
</g>
<g>
	<path id="_x3C_Compound_L_x3E__1_" fill="#ED2224" d="M264.336,464.644v-51.116h9.991v42.435h24.842v8.684h-34.833V464.644z"/>
	<path fill="#ED2224" d="M304.031,445.449c0-3.281,0.775-6.455,2.328-9.527c1.553-3.07,3.752-5.414,6.6-7.031
		c2.848-1.615,6.025-2.426,9.535-2.426c5.424,0,9.867,1.834,13.334,5.502c3.465,3.67,5.197,8.303,5.197,13.904
		c0,5.648-1.75,10.33-5.248,14.045c-3.5,3.715-7.904,5.572-13.215,5.572c-3.285,0-6.42-0.773-9.4-2.32
		c-2.982-1.547-5.25-3.814-6.803-6.803S304.031,449.738,304.031,445.449z M313.751,445.976c0,3.705,0.844,6.539,2.531,8.51
		c1.688,1.969,3.77,2.951,6.246,2.951c2.475,0,4.551-0.982,6.227-2.951c1.676-1.971,2.516-4.828,2.516-8.578
		c0-3.656-0.84-6.471-2.516-8.439s-3.752-2.953-6.227-2.953c-2.477,0-4.559,0.984-6.246,2.953S313.751,442.273,313.751,445.976z"/>
	<path fill="#ED2224" d="M379.708,438.347l-9.352,1.76c-0.314-1.945-1.029-3.41-2.143-4.396c-1.115-0.984-2.561-1.477-4.338-1.477
		c-2.363,0-4.248,0.85-5.654,2.549c-1.406,1.701-2.109,4.541-2.109,8.525c0,4.43,0.715,7.559,2.145,9.387
		c1.428,1.828,3.346,2.742,5.754,2.742c1.801,0,3.275-0.533,4.422-1.6c1.148-1.066,1.959-2.9,2.432-5.502l9.316,1.652
		c-0.969,4.453-2.824,7.814-5.568,10.09c-2.746,2.271-6.428,3.41-11.039,3.41c-5.242,0-9.422-1.725-12.539-5.168
		c-3.117-3.445-4.674-8.215-4.674-14.311c0-6.164,1.563-10.963,4.689-14.395c3.127-3.434,7.359-5.15,12.691-5.15
		c4.365,0,7.836,0.979,10.414,2.936C376.732,431.357,378.582,434.339,379.708,438.347z"/>
</g>
<rect x="264.336" y="436.359" fill="#5BC9E1" width="9.992" height="19.609"/>
</svg>
